<?xml version="1.0" encoding="UTF-8"?>
<svg version="1.1" xmlns="http://www.w3.org/2000/svg" width="1500" height="1500">
<path d="M0 0 C1.01769769 -0.00397441 2.03539538 -0.00794881 3.0839324 -0.01204365 C6.49249861 -0.02166453 9.90064956 -0.00984947 13.3092041 0.00190735 C15.75352636 -0.00052068 18.19784762 -0.0042401 20.64216614 -0.00915527 C26.59110473 -0.01758902 32.53988076 -0.01205087 38.48880064 0.00010767 C45.41838277 0.01374188 52.3479361 0.01208855 59.27752823 0.00997434 C71.64276671 0.00678568 84.00794755 0.01844504 96.37316895 0.03804016 C108.36830399 0.05704378 120.36337149 0.06412755 132.35852051 0.05854797 C145.42440103 0.05248831 158.49025187 0.05267069 171.55612993 0.06403381 C172.94971752 0.06524108 174.34330511 0.06644707 175.7368927 0.06765175 C176.42254196 0.06825529 177.10819122 0.06885883 177.81461772 0.06948065 C182.64343896 0.07335779 187.47224913 0.07296697 192.30107117 0.0710659 C198.80174373 0.06872053 205.3023418 0.0772831 211.8029995 0.0931263 C214.19029061 0.09737212 216.57759053 0.0982177 218.9648838 0.0954361 C222.2205812 0.09221792 225.47601877 0.10128726 228.73168945 0.11352539 C229.67896581 0.10974607 230.62624217 0.10596674 231.60222387 0.10207289 C236.42652396 0.13420615 240.33592031 0.49131503 244.86584473 2.3742218 C244.86584473 3.0342218 244.86584473 3.6942218 244.86584473 4.3742218 C245.85584473 4.3742218 246.84584473 4.3742218 247.86584473 4.3742218 C247.86584473 5.6942218 247.86584473 7.0142218 247.86584473 8.3742218 C248.85584473 8.3742218 249.84584473 8.3742218 250.86584473 8.3742218 C251.19584473 10.6842218 251.52584473 12.9942218 251.86584473 15.3742218 C252.52584473 15.3742218 253.18584473 15.3742218 253.86584473 15.3742218 C254.19584473 19.6642218 254.52584473 23.9542218 254.86584473 28.3742218 C255.52584473 28.3742218 256.18584473 28.3742218 256.86584473 28.3742218 C257.19584473 31.6742218 257.52584473 34.9742218 257.86584473 38.3742218 C258.52584473 38.3742218 259.18584473 38.3742218 259.86584473 38.3742218 C259.86584473 41.0142218 259.86584473 43.6542218 259.86584473 46.3742218 C260.85584473 46.3742218 261.84584473 46.3742218 262.86584473 46.3742218 C262.86584473 48.6842218 262.86584473 50.9942218 262.86584473 53.3742218 C263.52584473 53.3742218 264.18584473 53.3742218 264.86584473 53.3742218 C264.98959473 54.0135968 265.11334473 54.6529718 265.24084473 55.3117218 C265.44709473 55.9923468 265.65334473 56.6729718 265.86584473 57.3742218 C266.52584473 57.7042218 267.18584473 58.0342218 267.86584473 58.3742218 C268.49084473 61.4367218 268.49084473 61.4367218 268.86584473 64.3742218 C269.52584473 64.3742218 270.18584473 64.3742218 270.86584473 64.3742218 C271.19584473 65.3642218 271.52584473 66.3542218 271.86584473 67.3742218 C272.52584473 67.7042218 273.18584473 68.0342218 273.86584473 68.3742218 C274.19917806 69.70755514 274.53251139 71.04088847 274.86584473 72.3742218 C275.52584473 72.7042218 276.18584473 73.0342218 276.86584473 73.3742218 C278.61211951 75.99363397 279.25306861 77.41247057 279.86584473 80.3742218 C280.85584473 80.3742218 281.84584473 80.3742218 282.86584473 80.3742218 C283.19584473 81.3642218 283.52584473 82.3542218 283.86584473 83.3742218 C284.52584473 83.7042218 285.18584473 84.0342218 285.86584473 84.3742218 C285.86584473 85.3642218 285.86584473 86.3542218 285.86584473 87.3742218 C286.85584473 87.3742218 287.84584473 87.3742218 288.86584473 87.3742218 C288.86584473 88.3642218 288.86584473 89.3542218 288.86584473 90.3742218 C289.85584473 90.3742218 290.84584473 90.3742218 291.86584473 90.3742218 C291.86584473 91.3642218 291.86584473 92.3542218 291.86584473 93.3742218 C292.85584473 93.3742218 293.84584473 93.3742218 294.86584473 93.3742218 C296.86584473 95.3742218 296.86584473 95.3742218 297.86584473 98.3742218 C298.85584473 98.3742218 299.84584473 98.3742218 300.86584473 98.3742218 C300.86584473 99.3642218 300.86584473 100.3542218 300.86584473 101.3742218 C301.85584473 101.3742218 302.84584473 101.3742218 303.86584473 101.3742218 C303.86584473 102.0342218 303.86584473 102.6942218 303.86584473 103.3742218 C304.60834473 103.6217218 305.35084473 103.8692218 306.11584473 104.1242218 C308.86584473 105.3742218 308.86584473 105.3742218 310.67834473 107.2492218 C313.67120107 110.15656797 317.09895146 111.65534817 320.86584473 113.3742218 C320.86584473 114.0342218 320.86584473 114.6942218 320.86584473 115.3742218 C322.84584473 115.7042218 324.82584473 116.0342218 326.86584473 116.3742218 C326.86584473 117.0342218 326.86584473 117.6942218 326.86584473 118.3742218 C327.67021973 118.4567218 328.47459473 118.5392218 329.30334473 118.6242218 C333.12907149 119.42963796 336.21753053 120.80972059 339.74084473 122.4523468 C342.08739037 123.47033352 344.32939393 124.04693783 346.86584473 124.3742218 C346.86584473 125.0342218 346.86584473 125.6942218 346.86584473 126.3742218 C349.83584473 126.7042218 352.80584473 127.0342218 355.86584473 127.3742218 C355.86584473 128.0342218 355.86584473 128.6942218 355.86584473 129.3742218 C356.97379395 129.44769836 356.97379395 129.44769836 358.10412598 129.5226593 C359.11861816 129.59742493 360.13311035 129.67219055 361.17834473 129.7492218 C362.65754395 129.85363586 362.65754395 129.85363586 364.16662598 129.9601593 C367.15047453 130.29414869 369.95018478 130.78545454 372.88409424 131.38380718 C378.72384463 132.45366295 384.34839486 132.6572723 390.27307129 132.63491821 C391.3675398 132.63874376 392.4620083 132.64256931 393.58964252 132.64651078 C397.22863489 132.65676532 400.86746724 132.65286294 404.50646973 132.64888 C407.12747848 132.65323079 409.74848597 132.65841516 412.36949158 132.66436768 C418.7344785 132.67707424 425.09942315 132.67891323 431.46442062 132.67656741 C436.64515927 132.67477867 441.82588518 132.67654579 447.00662231 132.68079185 C448.11601639 132.68168464 448.11601639 132.68168464 449.24782246 132.68259546 C450.7507697 132.68380733 452.25371693 132.68502146 453.75666416 132.68623783 C467.83279304 132.69709892 481.90889793 132.69495834 495.98502815 132.68885299 C508.82374478 132.68369155 521.66238536 132.69492138 534.50108695 132.71395121 C547.71928915 132.73339146 560.9374555 132.7415744 574.15567207 132.73782796 C581.56230293 132.73592444 588.96886918 132.73831944 596.37548828 132.7525425 C602.6849056 132.76453686 608.9942186 132.76577242 615.30363756 132.75375233 C618.51416788 132.74791794 621.72447168 132.74827985 624.93499565 132.75875473 C637.97683242 132.79820634 650.51500827 132.43869159 663.35444641 130.01738262 C666.86584473 129.3742218 666.86584473 129.3742218 669.86584473 129.3742218 C669.86584473 128.7142218 669.86584473 128.0542218 669.86584473 127.3742218 C671.14459473 127.2504718 672.42334473 127.1267218 673.74084473 126.9992218 C677.21375409 126.68379781 677.21375409 126.68379781 679.86584473 124.3742218 C681.50361296 123.90628802 683.14311255 123.44339117 684.79162598 123.0148468 C687.94991046 122.03940677 690.87347365 120.60483312 693.85021973 119.1789093 C695.86584473 118.3742218 695.86584473 118.3742218 698.86584473 118.3742218 C698.86584473 117.7142218 698.86584473 117.0542218 698.86584473 116.3742218 C701.83584473 115.8792218 701.83584473 115.8792218 704.86584473 115.3742218 C704.86584473 114.7142218 704.86584473 114.0542218 704.86584473 113.3742218 C705.39693848 113.13187805 705.92803223 112.8895343 706.47521973 112.6398468 C710.6419574 110.66292747 713.74120499 108.84604373 716.86584473 105.3742218 C719.86584473 103.3742218 719.86584473 103.3742218 722.86584473 103.3742218 C722.86584473 102.7142218 722.86584473 102.0542218 722.86584473 101.3742218 C723.52584473 101.3742218 724.18584473 101.3742218 724.86584473 101.3742218 C725.19584473 100.3842218 725.52584473 99.3942218 725.86584473 98.3742218 C726.52584473 98.3742218 727.18584473 98.3742218 727.86584473 98.3742218 C728.19584473 97.3842218 728.52584473 96.3942218 728.86584473 95.3742218 C729.52584473 94.7142218 730.18584473 94.0542218 730.86584473 93.3742218 C731.85584473 93.3742218 732.84584473 93.3742218 733.86584473 93.3742218 C733.86584473 92.3842218 733.86584473 91.3942218 733.86584473 90.3742218 C734.85584473 90.3742218 735.84584473 90.3742218 736.86584473 90.3742218 C736.86584473 89.3842218 736.86584473 88.3942218 736.86584473 87.3742218 C737.85584473 87.3742218 738.84584473 87.3742218 739.86584473 87.3742218 C739.86584473 86.3842218 739.86584473 85.3942218 739.86584473 84.3742218 C740.85584473 84.3742218 741.84584473 84.3742218 742.86584473 84.3742218 C742.86584473 83.0542218 742.86584473 81.7342218 742.86584473 80.3742218 C743.85584473 80.3742218 744.84584473 80.3742218 745.86584473 80.3742218 C745.94834473 79.7967218 746.03084473 79.2192218 746.11584473 78.6242218 C747.06997607 75.76182776 748.75169851 74.48836801 750.86584473 72.3742218 C751.49876855 70.26141835 751.49876855 70.26141835 751.86584473 68.3742218 C752.52584473 68.0442218 753.18584473 67.7142218 753.86584473 67.3742218 C754.19584473 66.3842218 754.52584473 65.3942218 754.86584473 64.3742218 C755.52584473 64.3742218 756.18584473 64.3742218 756.86584473 64.3742218 C756.98959473 63.4048468 757.11334473 62.4354718 757.24084473 61.4367218 C757.44709473 60.4260968 757.65334473 59.4154718 757.86584473 58.3742218 C758.52584473 58.0442218 759.18584473 57.7142218 759.86584473 57.3742218 C760.51797764 55.34958925 760.51797764 55.34958925 760.86584473 53.3742218 C761.52584473 53.3742218 762.18584473 53.3742218 762.86584473 53.3742218 C763.19584473 51.0642218 763.52584473 48.7542218 763.86584473 46.3742218 C764.52584473 46.3742218 765.18584473 46.3742218 765.86584473 46.3742218 C765.86584473 44.0642218 765.86584473 41.7542218 765.86584473 39.3742218 C767.35084473 38.8792218 767.35084473 38.8792218 768.86584473 38.3742218 C768.86584473 35.0742218 768.86584473 31.7742218 768.86584473 28.3742218 C769.52584473 28.3742218 770.18584473 28.3742218 770.86584473 28.3742218 C771.19584473 24.0842218 771.52584473 19.7942218 771.86584473 15.3742218 C772.52584473 15.3742218 773.18584473 15.3742218 773.86584473 15.3742218 C774.19584473 13.0642218 774.52584473 10.7542218 774.86584473 8.3742218 C775.85584473 8.3742218 776.84584473 8.3742218 777.86584473 8.3742218 C777.86584473 7.0542218 777.86584473 5.7342218 777.86584473 4.3742218 C778.85584473 4.3742218 779.84584473 4.3742218 780.86584473 4.3742218 C780.86584473 3.7142218 780.86584473 3.0542218 780.86584473 2.3742218 C786.3120808 0.11044125 791.2070354 0.09041335 797 0.11352539 C798.01769769 0.10969984 799.03539538 0.1058743 800.0839324 0.10193282 C803.49240891 0.09161799 806.9007165 0.09559213 810.3092041 0.0995636 C812.75352637 0.09521634 815.19784727 0.09003315 817.64216614 0.08407593 C823.59106441 0.07206887 829.53989634 0.06953416 835.48880064 0.07187619 C840.32413779 0.07366016 845.15946124 0.07190802 849.99479675 0.06765175 C850.68331642 0.06705656 851.3718361 0.06646137 852.08122 0.06584815 C853.47998941 0.06463638 854.87875882 0.06342225 856.27752823 0.06220577 C869.38991778 0.05133368 882.5022816 0.05349135 895.6146726 0.05959062 C907.60891001 0.06476137 919.60306624 0.05349959 931.5972876 0.0344924 C943.9169094 0.01511934 956.23649279 0.00685694 968.55612993 0.01061565 C975.47113753 0.01252826 982.386076 0.01003413 989.30107117 -0.00409889 C995.80175624 -0.0172509 1002.30230543 -0.01475997 1008.8029995 -0.001688 C1011.19029482 0.00068337 1013.57760151 -0.00207689 1015.9648838 -0.01031113 C1019.22067613 -0.02073237 1022.47591722 -0.01271474 1025.73168945 0 C1026.67896581 -0.00737428 1027.62624217 -0.01474857 1028.60222387 -0.02234632 C1034.78026574 0.0285008 1039.31174471 0.82012179 1043.86584473 5.3742218 C1044.38146973 6.0754718 1044.89709473 6.7767218 1045.42834473 7.4992218 C1045.90271973 8.1179718 1046.37709473 8.7367218 1046.86584473 9.3742218 C1047.19584473 9.3742218 1047.52584473 9.3742218 1047.86584473 9.3742218 C1047.86584473 242.6842218 1047.86584473 475.9942218 1047.86584473 716.3742218 C1046.87584473 716.0442218 1045.88584473 715.7142218 1044.86584473 715.3742218 C1044.86584473 716.6942218 1044.86584473 718.0142218 1044.86584473 719.3742218 C1043.87584473 719.3742218 1042.88584473 719.3742218 1041.86584473 719.3742218 C1041.86584473 720.3642218 1041.86584473 721.3542218 1041.86584473 722.3742218 C1036.55708721 725.63794047 1032.33453708 725.79672703 1026.30374336 725.74336529 C1025.34288916 725.74682682 1024.38203497 725.75028835 1023.39206398 725.75385478 C1020.15946441 725.76182079 1016.9273095 725.74831563 1013.69473267 725.73498535 C1011.35904106 725.73629313 1009.02334988 725.73891903 1006.68766105 725.74275285 C1000.93368791 725.74876997 995.17985139 725.74080919 989.42589438 725.72703082 C982.53429811 725.71132075 975.64273473 725.71306389 968.75112493 725.71546419 C956.03265249 725.71940617 943.31422681 725.70938062 930.59576797 725.69141197 C918.00175877 725.67366472 905.40776903 725.66211491 892.81374741 725.65885353 C892.03087391 725.65864731 891.24800042 725.65844109 890.44140349 725.65822863 C886.46563188 725.65721363 882.48986026 725.65630948 878.51408862 725.655448 C850.34910083 725.64914571 822.18413849 725.6289307 794.01916504 725.60054016 C766.65621065 725.57298989 739.29326329 725.55178829 711.93029785 725.53901672 C710.20981177 725.5382048 708.48932568 725.53739268 706.7688396 725.53658038 C692.78931075 725.53001413 678.80978171 725.52388637 664.83025262 725.51786494 C600.17542588 725.4896998 535.52066553 725.42948933 470.86584473 725.3742218 C470.86584473 624.0642218 470.86584473 522.7542218 470.86584473 418.3742218 C415.75584473 418.3742218 360.64584473 418.3742218 303.86584473 418.3742218 C303.88904785 440.28441711 303.91225098 462.19461243 303.93615723 484.76875305 C303.94637043 498.60924816 303.95609267 512.44974096 303.96350098 526.29023743 C303.96741692 533.5575715 303.97145795 540.82490549 303.97570801 548.09223938 C303.97623551 549.00312437 303.976763 549.91400936 303.97730649 550.85249692 C303.98601321 565.5722087 304.00178531 580.29190491 304.02015032 595.01160745 C304.03883082 610.10971664 304.04995753 625.20781767 304.05402172 640.30593795 C304.05677062 649.62780661 304.06546344 658.94963129 304.08167766 668.27148642 C304.09222173 674.65744061 304.09545122 681.04337194 304.09284748 687.4293342 C304.09156216 691.11774639 304.09357957 694.80608153 304.10425568 698.49448013 C304.11572859 702.48716323 304.11183858 706.47974479 304.10635376 710.47244263 C304.11509228 712.23360726 304.11509228 712.23360726 304.12400734 714.03035098 C304.1180342 715.62773908 304.1180342 715.62773908 304.11194038 717.25739765 C304.11269982 718.17973833 304.11345927 719.10207902 304.11424172 720.05236942 C303.86584473 722.3742218 303.86584473 722.3742218 301.86584473 725.3742218 C298.90075684 725.73066711 298.90075684 725.73066711 295.14318848 725.7023468 C294.4825087 725.70047363 293.82182892 725.69860046 293.14112854 725.69667053 C291.74487256 725.6899479 290.34863548 725.67602897 288.95251465 725.6554718 C286.80821359 725.6242926 284.66464693 725.61449979 282.5201416 725.6085968 C272.02922149 725.53759856 272.02922149 725.53759856 270.86584473 724.3742218 C270.76871297 722.74260798 270.74212894 721.10676088 270.7427969 719.47225857 C270.74080585 718.40434847 270.7388148 717.33643838 270.73676342 716.23616737 C270.73967626 715.04845003 270.7425891 713.8607327 270.74559021 712.63702393 C270.74430857 710.76139176 270.74430857 710.76139176 270.74300104 708.84786803 C270.74075374 705.36123435 270.74478056 701.87463111 270.74977911 698.38800132 C270.75408006 694.63406425 270.75263744 690.88012903 270.75187683 687.12619019 C270.75135137 680.61696907 270.75450047 674.10775795 270.76011467 667.59853935 C270.76822668 658.18719327 270.77084458 648.77585205 270.77210266 639.36450285 C270.77429365 624.09682505 270.78095501 608.82915257 270.79040527 593.56147766 C270.79957818 578.72651699 270.80664814 563.89155777 270.81091309 549.05659485 C270.81118108 548.13350692 270.81144908 547.21041899 270.8117252 546.2593587 C270.81380451 539.04067312 270.81576147 531.82198751 270.81767976 524.60330188 C270.82712089 489.19360363 270.84723742 453.78391871 270.86584473 418.3742218 C215.75584473 418.3742218 160.64584473 418.3742218 103.86584473 418.3742218 C103.87744629 440.45199524 103.88904785 462.52976868 103.90100098 485.27656555 C103.90610717 499.21732084 103.91096824 513.15807555 103.91467285 527.09883118 C103.91663087 534.41808576 103.91865139 541.73734032 103.92077637 549.05659485 C103.92104012 549.97400521 103.92130386 550.89141556 103.92157561 551.83662623 C103.92593062 566.66759416 103.93381757 581.49855822 103.94299752 596.32952385 C103.95233319 611.53836534 103.95790015 626.74720479 103.95993322 641.95604903 C103.96130863 651.34854085 103.96566018 660.74102177 103.97376119 670.13351024 C103.97902758 676.56523356 103.98064927 682.99695121 103.9793461 689.42867654 C103.97870256 693.14517193 103.97972212 696.86164822 103.9850502 700.57814026 C103.99077115 704.59778086 103.9888459 708.61738022 103.98609924 712.63702393 C103.98901208 713.82474126 103.99192493 715.0124586 103.99492604 716.23616737 C103.99293499 717.30407747 103.99094394 718.37198756 103.98889256 719.47225857 C103.98927228 720.40143422 103.989652 721.33060986 103.99004322 722.28794235 C103.86584473 724.3742218 103.86584473 724.3742218 102.86584473 725.3742218 C101.42699964 725.47629462 99.98319249 725.50940479 98.54074097 725.5146637 C97.14027527 725.52322891 97.14027527 725.52322891 95.71151733 725.53196716 C94.67882721 725.53308502 93.64613708 725.53420288 92.58215332 725.53535461 C91.50085144 725.54031952 90.41954956 725.54528442 89.30548096 725.55039978 C85.70840835 725.56507002 82.1113799 725.57183274 78.51428223 725.5773468 C76.02141315 725.58309584 73.52854409 725.5888536 71.03567505 725.59461975 C66.46865101 725.60379742 61.9016397 725.61009102 57.33460748 725.6131165 C51.28651952 725.61714509 45.23858713 725.62938577 39.19055176 725.6554718 C32.70548617 725.68301321 26.22055412 725.6958653 19.73543167 725.69779205 C17.2627209 725.70081869 14.79001099 725.70884756 12.31733322 725.72197723 C8.85336668 725.73905192 5.389895 725.73715327 1.92590332 725.73066711 C0.39508621 725.74448929 0.39508621 725.74448929 -1.16665649 725.7585907 C-6.9404809 725.72476304 -11.00483442 725.07283187 -16.13415527 722.3742218 C-16.13415527 721.3842218 -16.13415527 720.3942218 -16.13415527 719.3742218 C-17.12415527 719.3742218 -18.11415527 719.3742218 -19.13415527 719.3742218 C-19.13415527 718.0542218 -19.13415527 716.7342218 -19.13415527 715.3742218 C-20.12415527 715.3742218 -21.11415527 715.3742218 -22.13415527 715.3742218 C-22.13415527 482.3942218 -22.13415527 249.4142218 -22.13415527 9.3742218 C-21.47415527 9.3742218 -20.81415527 9.3742218 -20.13415527 9.3742218 C-19.80415527 8.0542218 -19.47415527 6.7342218 -19.13415527 5.3742218 C-18.14415527 5.3742218 -17.15415527 5.3742218 -16.13415527 5.3742218 C-16.13415527 4.7142218 -16.13415527 4.0542218 -16.13415527 3.3742218 C-10.69934003 -0.01674281 -6.19578472 -0.04823247 0 0 Z M83.80334473 290.8117218 C83.16396973 291.6573468 82.52459473 292.5029718 81.86584473 293.3742218 C81.28834473 294.1167218 80.71084473 294.8592218 80.11584473 295.6242218 C79.70334473 296.2017218 79.29084473 296.7792218 78.86584473 297.3742218 C78.53584473 297.7042218 78.20584473 298.0342218 77.86584473 298.3742218 C77.77091751 300.71675962 77.74024681 303.02968284 77.75231934 305.37251282 C77.75217331 306.10417664 77.75202728 306.83584045 77.75187683 307.5896759 C77.75257606 310.01918964 77.76036888 312.44862764 77.76818848 314.87812805 C77.77005262 316.55821694 77.77147654 318.23830637 77.7724762 319.918396 C77.77630165 324.34895823 77.78613217 328.7794879 77.79718018 333.21003723 C77.8073937 337.72765156 77.81197369 342.24527114 77.8170166 346.76289368 C77.82775442 355.63335073 77.84483117 364.50378356 77.86584473 373.3742218 C78.52584473 373.7042218 79.18584473 374.0342218 79.86584473 374.3742218 C80.49084473 376.4367218 80.49084473 376.4367218 80.86584473 378.3742218 C81.85584473 378.3742218 82.84584473 378.3742218 83.86584473 378.3742218 C83.86584473 379.0342218 83.86584473 379.6942218 83.86584473 380.3742218 C84.85584473 380.3742218 85.84584473 380.3742218 86.86584473 380.3742218 C86.86584473 381.0342218 86.86584473 381.6942218 86.86584473 382.3742218 C87.85584473 382.3742218 88.84584473 382.3742218 89.86584473 382.3742218 C89.86584473 383.3642218 89.86584473 384.3542218 89.86584473 385.3742218 C97.58284452 386.61851223 105.28631805 386.5168134 113.07969666 386.50793457 C114.63523716 386.50980427 116.1907772 386.51210561 117.74631649 386.51479989 C122.00926489 386.52090441 126.27219363 386.52078589 130.5351454 386.51960552 C135.13713165 386.51940118 139.73911165 386.52492341 144.34109497 386.52966309 C153.3521146 386.53796233 162.36312768 386.54071758 171.37415081 386.54127546 C178.69844567 386.54175088 186.02273837 386.5438069 193.34703255 386.54697609 C214.11642569 386.55577995 234.88581367 386.56039578 255.6552087 386.55964562 C257.33402309 386.55958568 257.33402309 386.55958568 259.04675293 386.55952454 C260.16732989 386.55948366 261.28790686 386.55944277 262.4424407 386.55940066 C280.61003351 386.55899405 298.77760562 386.56856792 316.94519245 386.5826629 C335.6031254 386.59702405 354.26104824 386.60393326 372.91898686 386.60306913 C383.3926446 386.60273711 393.86628063 386.60548628 404.3399334 386.61624718 C413.25544831 386.62534863 422.17093165 386.62753027 431.0864492 386.62073775 C435.6343653 386.61747103 440.1822208 386.61742143 444.73013115 386.626091 C448.895622 386.63394991 453.06100412 386.6325308 457.22649229 386.62380687 C458.73111446 386.62227057 460.23574471 386.62409295 461.74035733 386.62966695 C477.31602797 386.96652145 477.31602797 386.96652145 490.55334473 379.8117218 C491.31646973 379.0073468 492.07959473 378.2029718 492.86584473 377.3742218 C493.19584473 377.0442218 493.52584473 376.7142218 493.86584473 376.3742218 C493.90648305 374.70805065 493.90856573 373.04034085 493.86584473 371.3742218 C495.35084473 370.8792218 495.35084473 370.8792218 496.86584473 370.3742218 C496.86584473 347.6042218 496.86584473 324.8342218 496.86584473 301.3742218 C496.20584473 301.0442218 495.54584473 300.7142218 494.86584473 300.3742218 C494.24084473 297.8117218 494.24084473 297.8117218 493.86584473 295.3742218 C492.87584473 295.3742218 491.88584473 295.3742218 490.86584473 295.3742218 C490.77303223 294.4770343 490.77303223 294.4770343 490.67834473 293.5617218 C489.52313929 290.45155333 487.79707286 289.77004472 484.86584473 288.3742218 C483.87584473 288.3742218 482.88584473 288.3742218 481.86584473 288.3742218 C481.86584473 287.7142218 481.86584473 287.0542218 481.86584473 286.3742218 C433.27822762 286.17796055 384.69057377 285.99769362 336.10281916 285.83884354 C330.36513589 285.82007139 324.62745307 285.80116697 318.88977051 285.78218079 C317.74751278 285.77840324 316.60525504 285.77462569 315.42838344 285.77073368 C296.93895401 285.70927217 278.44958116 285.63709844 259.96020702 285.56095801 C240.98501199 285.48305567 222.00980183 285.41668341 203.03452849 285.36098927 C191.32805428 285.32626707 179.62168433 285.28257776 167.91528848 285.22737696 C159.88515423 285.19037333 151.85503245 285.16458078 143.82483122 285.14754788 C139.19350965 285.13739504 134.56234204 285.12235348 129.93109322 285.09398079 C125.68555458 285.06808054 121.44021427 285.05635646 117.19459888 285.05559292 C115.66409427 285.0528714 114.13358785 285.04508425 112.60314086 285.03152708 C97.31370591 284.71069915 97.31370591 284.71069915 83.80334473 290.8117218 Z M914.54208374 285.2784729 C912.85984071 285.28119989 912.85984071 285.28119989 911.14361298 285.28398198 C907.39588361 285.29134651 903.64821988 285.30604011 899.9005127 285.320755 C897.2095948 285.32762711 894.51867845 285.3341057 891.82775879 285.34013367 C885.28423414 285.35579427 878.74073995 285.3771272 872.1972395 285.40071169 C866.87902644 285.41985125 861.56081049 285.43733229 856.24258804 285.45364952 C841.15774575 285.50010877 826.07292635 285.55077812 810.9881172 285.60699258 C809.76961137 285.61153301 809.76961137 285.61153301 808.52648926 285.61616516 C807.71315869 285.61919666 806.89982811 285.62222815 806.06185116 285.62535151 C792.86825041 285.67427205 779.67464154 285.71319723 766.48099564 285.74758611 C752.92731525 285.78302471 739.37367552 285.8258231 725.82004273 285.87634152 C718.21316224 285.90454584 710.60629971 285.92971914 702.99938583 285.9470005 C696.52629145 285.96176648 690.05326477 285.98337585 683.58022462 286.01387564 C680.27822518 286.02923869 676.9763088 286.04034178 673.67427444 286.04497719 C670.09462205 286.0505284 666.51522996 286.06822169 662.93563843 286.08901978 C661.8924526 286.08776716 660.84926677 286.08651455 659.77446926 286.08522397 C654.7413914 286.12753272 650.57812907 286.36901783 645.86584473 288.3742218 C645.86584473 289.0342218 645.86584473 289.6942218 645.86584473 290.3742218 C645.24709473 290.6217218 644.62834473 290.8692218 643.99084473 291.1242218 C641.51515786 292.58050819 640.9145947 293.75234686 639.86584473 296.3742218 C639.20584473 296.3742218 638.54584473 296.3742218 637.86584473 296.3742218 C637.86584473 299.0142218 637.86584473 301.6542218 637.86584473 304.3742218 C636.87584473 304.3742218 635.88584473 304.3742218 634.86584473 304.3742218 C634.86584473 369.0542218 634.86584473 433.7342218 634.86584473 500.3742218 C635.52584473 500.7042218 636.18584473 501.0342218 636.86584473 501.3742218 C637.273137 503.69578777 637.61023149 506.0311005 637.86584473 508.3742218 C638.52584473 508.3742218 639.18584473 508.3742218 639.86584473 508.3742218 C640.19584473 509.6942218 640.52584473 511.0142218 640.86584473 512.3742218 C641.52584473 512.3742218 642.18584473 512.3742218 642.86584473 512.3742218 C642.86584473 513.0342218 642.86584473 513.6942218 642.86584473 514.3742218 C643.85584473 514.3742218 644.84584473 514.3742218 645.86584473 514.3742218 C646.19584473 515.3642218 646.52584473 516.3542218 646.86584473 517.3742218 C652.31954444 520.0794361 658.14597616 519.65612712 664.0874939 519.63491821 C665.78955826 519.64065653 665.78955826 519.64065653 667.52600777 519.64651078 C671.33057729 519.65683462 675.13499571 519.65284972 678.9395752 519.64888 C681.66636593 519.65213329 684.39314825 519.65834537 687.11993408 519.66436768 C693.7593129 519.67711245 700.39865127 519.67890863 707.03804027 519.67656741 C712.43543073 519.67478378 717.83280891 519.67653486 723.23019791 519.68079185 C723.99862561 519.68138704 724.76705331 519.68198223 725.5587667 519.68259546 C727.11987765 519.68380722 728.68098859 519.68502136 730.24209954 519.68623783 C744.88012957 519.6971126 759.51813655 519.69495123 774.15616788 519.68885299 C787.54258726 519.68368434 800.92893385 519.694938 814.31533884 519.71395121 C828.0655652 519.7333312 841.81575713 519.7415853 855.56599724 519.73782796 C863.28366562 519.7359161 871.00127206 519.73840194 878.71892929 519.7525425 C885.28935737 519.76445935 891.85968539 519.76585782 898.43011485 519.75375233 C901.78104556 519.74786556 905.13164338 519.74838737 908.48258591 519.75875473 C912.11863659 519.7691931 915.75419536 519.76114416 919.39022827 519.7484436 C920.44451645 519.75581789 921.49880462 519.76319217 922.58504093 519.77078992 C928.71413466 519.72574706 933.26313372 518.89435433 938.86584473 516.3742218 C938.86584473 515.7142218 938.86584473 515.0542218 938.86584473 514.3742218 C939.85584473 514.3742218 940.84584473 514.3742218 941.86584473 514.3742218 C941.86584473 513.3842218 941.86584473 512.3942218 941.86584473 511.3742218 C942.85584473 511.3742218 943.84584473 511.3742218 944.86584473 511.3742218 C945.17521973 510.7348468 945.48459473 510.0954718 945.80334473 509.4367218 C946.86584473 507.3742218 946.86584473 507.3742218 947.86584473 506.3742218 C947.96368169 503.69352848 947.99578384 501.03861057 947.98609924 498.35748291 C947.98695367 497.50724959 947.98780809 496.65701628 947.98868841 495.78101832 C947.99034582 492.90964011 947.98481759 490.03831931 947.97937012 487.16694641 C947.97908828 485.1175639 947.97924592 483.06818128 947.97981262 481.01879883 C947.98010072 475.43638268 947.97420209 469.85398782 947.96723866 464.27157664 C947.96100708 458.44459181 947.96040148 452.61760655 947.95921326 446.7906189 C947.95609936 435.74794886 947.94788519 424.70528868 947.93786377 413.66262299 C947.92670443 401.09452101 947.92119263 388.52641857 947.91616833 375.95831287 C947.90570263 350.09694371 947.88810206 324.23558331 947.86584473 298.3742218 C947.20584473 298.0442218 946.54584473 297.7142218 945.86584473 297.3742218 C945.24084473 295.3117218 945.24084473 295.3117218 944.86584473 293.3742218 C944.20584473 293.3742218 943.54584473 293.3742218 942.86584473 293.3742218 C942.53584473 292.7142218 942.20584473 292.0542218 941.86584473 291.3742218 C940.87584473 291.3742218 939.88584473 291.3742218 938.86584473 291.3742218 C938.86584473 290.3842218 938.86584473 289.3942218 938.86584473 288.3742218 C937.21584473 288.3742218 935.56584473 288.3742218 933.86584473 288.3742218 C933.86584473 287.7142218 933.86584473 287.0542218 933.86584473 286.3742218 C927.38583063 285.40187337 921.08833743 285.24419174 914.54208374 285.2784729 Z M75.86584473 309.3742218 C75.86584473 327.1942218 75.86584473 345.0142218 75.86584473 363.3742218 C76.19584473 363.3742218 76.52584473 363.3742218 76.86584473 363.3742218 C76.86584473 345.5542218 76.86584473 327.7342218 76.86584473 309.3742218 C76.53584473 309.3742218 76.20584473 309.3742218 75.86584473 309.3742218 Z M948.86584473 309.3742218 C948.86584473 370.7542218 948.86584473 432.1342218 948.86584473 495.3742218 C949.19584473 495.3742218 949.52584473 495.3742218 949.86584473 495.3742218 C949.86584473 433.9942218 949.86584473 372.6142218 949.86584473 309.3742218 C949.53584473 309.3742218 949.20584473 309.3742218 948.86584473 309.3742218 Z " fill="#619E90" transform="translate(236.1341552734375,474.6257781982422)"/>
<path d="M0 0 C0.81442845 -0.00152655 1.6288569 -0.0030531 2.46796499 -0.0046259 C5.2259332 -0.00855547 7.98384754 -0.00529797 10.7418161 -0.00213462 C12.73604231 -0.00347992 14.73026825 -0.00526303 16.72449371 -0.00744686 C22.24758234 -0.01220323 27.7706546 -0.01066673 33.29374407 -0.00816908 C39.28613649 -0.0065435 45.27852529 -0.01067055 51.27091658 -0.01407826 C61.78761929 -0.01924581 72.30431809 -0.02068179 82.82102162 -0.01962215 C94.10927985 -0.01849907 105.39753478 -0.01952697 116.68579251 -0.02319461 C117.39788756 -0.02342426 118.10998262 -0.02365392 118.84365631 -0.02389053 C121.74375109 -0.02483213 124.64384586 -0.02578781 127.54394063 -0.02676172 C157.82435092 -0.0369156 188.10475937 -0.03996805 218.38517117 -0.04055383 C221.64624494 -0.04061858 224.90731871 -0.04068651 228.16839248 -0.04075724 C229.38219537 -0.04078275 229.38219537 -0.04078275 230.62051952 -0.04080877 C248.53783285 -0.04121691 266.45514582 -0.04340579 284.37245896 -0.04591308 C291.74591689 -0.04694141 299.11937484 -0.04793143 306.49283278 -0.04892933 C307.30748966 -0.04903992 308.12214654 -0.04915051 308.96148999 -0.04926445 C355.65658346 -0.05559012 402.35167671 -0.05971339 449.04677063 -0.0592559 C450.79493413 -0.05924012 452.54309763 -0.05922438 454.29126112 -0.05920869 C462.18441559 -0.0591353 470.07757006 -0.05904713 477.97072453 -0.05895481 C481.49062397 -0.05891368 485.01052342 -0.05887353 488.53042286 -0.05883349 C490.29219747 -0.0588131 492.05397207 -0.05879208 493.81574668 -0.05877043 C549.5379527 -0.05809003 605.26015237 -0.06540961 660.98235661 -0.07931072 C675.02317099 -0.08281158 689.06398538 -0.08628097 703.10479981 -0.08957511 C703.96928393 -0.08977799 704.83376806 -0.08998086 705.72444867 -0.09018988 C732.35658117 -0.09640211 758.98871314 -0.1001699 785.62084633 -0.1014331 C786.87453884 -0.10149302 786.87453884 -0.10149302 788.15355847 -0.10155416 C806.49875278 -0.10240732 824.84394705 -0.10266867 843.18914138 -0.10238378 C849.75290809 -0.1022873 856.3166748 -0.10223526 862.88044152 -0.10220506 C864.51341412 -0.10219714 866.14638671 -0.10218694 867.77935931 -0.10217443 C893.82866409 -0.10199791 919.87796345 -0.10770409 945.92726667 -0.11632825 C972.15422355 -0.1249671 998.3811729 -0.12717896 1024.60813059 -0.12056693 C1028.22819386 -0.11965456 1031.84825714 -0.1188113 1035.46832043 -0.11800891 C1036.53281788 -0.11776878 1036.53281788 -0.11776878 1037.61882034 -0.1175238 C1048.87874804 -0.11516612 1060.13866277 -0.11953911 1071.39858803 -0.1266801 C1082.45694274 -0.13355355 1093.51528184 -0.13317863 1104.57363712 -0.12548796 C1110.49478292 -0.121577 1116.41588242 -0.12091449 1122.3370251 -0.12894531 C1127.71441391 -0.13617527 1133.09171747 -0.134346 1138.46910236 -0.12502145 C1140.41119756 -0.12328777 1142.35329927 -0.12496821 1144.29538787 -0.13032265 C1146.91708592 -0.13707163 1149.53847902 -0.13166135 1152.16016483 -0.12304783 C1152.91978275 -0.12794745 1153.67940067 -0.13284707 1154.46203731 -0.13789516 C1158.22352232 -0.11191356 1160.91875356 0.14020389 1164.142757 2.12649983 C1166.23709912 2.499712 1166.23709912 2.499712 1168.330257 2.62649983 C1169.588382 2.79149983 1170.846507 2.95649983 1172.142757 3.12649983 C1172.472757 3.78649983 1172.802757 4.44649983 1173.142757 5.12649983 C1175.67008935 5.78205102 1175.67008935 5.78205102 1178.142757 6.12649983 C1178.142757 6.78649983 1178.142757 7.44649983 1178.142757 8.12649983 C1179.091507 8.25024983 1180.040257 8.37399983 1181.017757 8.50149983 C1184.142757 9.12649983 1184.142757 9.12649983 1186.142757 11.12649983 C1186.472757 11.78649983 1186.802757 12.44649983 1187.142757 13.12649983 C1188.132757 13.12649983 1189.122757 13.12649983 1190.142757 13.12649983 C1190.142757 13.78649983 1190.142757 14.44649983 1190.142757 15.12649983 C1191.132757 15.12649983 1192.122757 15.12649983 1193.142757 15.12649983 C1193.142757 16.11649983 1193.142757 17.10649983 1193.142757 18.12649983 C1194.132757 18.12649983 1195.122757 18.12649983 1196.142757 18.12649983 C1196.142757 19.11649983 1196.142757 20.10649983 1196.142757 21.12649983 C1197.132757 21.12649983 1198.122757 21.12649983 1199.142757 21.12649983 C1199.142757 22.11649983 1199.142757 23.10649983 1199.142757 24.12649983 C1200.132757 24.45649983 1201.122757 24.78649983 1202.142757 25.12649983 C1202.142757 26.11649983 1202.142757 27.10649983 1202.142757 28.12649983 C1202.802757 28.12649983 1203.462757 28.12649983 1204.142757 28.12649983 C1204.472757 29.44649983 1204.802757 30.76649983 1205.142757 32.12649983 C1205.802757 32.12649983 1206.462757 32.12649983 1207.142757 32.12649983 C1207.472757 33.77649983 1207.802757 35.42649983 1208.142757 37.12649983 C1208.802757 37.12649983 1209.462757 37.12649983 1210.142757 37.12649983 C1210.472757 39.10649983 1210.802757 41.08649983 1211.142757 43.12649983 C1211.802757 43.12649983 1212.462757 43.12649983 1213.142757 43.12649983 C1213.472757 45.76649983 1213.802757 48.40649983 1214.142757 51.12649983 C1214.802757 51.12649983 1215.462757 51.12649983 1216.142757 51.12649983 C1216.142757 72.24649983 1216.142757 93.36649983 1216.142757 115.12649983 C1215.482757 115.12649983 1214.822757 115.12649983 1214.142757 115.12649983 C1213.812757 117.76649983 1213.482757 120.40649983 1213.142757 123.12649983 C1212.482757 123.12649983 1211.822757 123.12649983 1211.142757 123.12649983 C1210.812757 125.10649983 1210.482757 127.08649983 1210.142757 129.12649983 C1209.482757 129.12649983 1208.822757 129.12649983 1208.142757 129.12649983 C1208.019007 129.93087483 1207.895257 130.73524983 1207.767757 131.56399983 C1207.561507 132.40962483 1207.355257 133.25524983 1207.142757 134.12649983 C1206.482757 134.45649983 1205.822757 134.78649983 1205.142757 135.12649983 C1204.812757 136.11649983 1204.482757 137.10649983 1204.142757 138.12649983 C1203.482757 138.12649983 1202.822757 138.12649983 1202.142757 138.12649983 C1201.812757 139.44649983 1201.482757 140.76649983 1201.142757 142.12649983 C1200.482757 142.12649983 1199.822757 142.12649983 1199.142757 142.12649983 C1199.142757 143.11649983 1199.142757 144.10649983 1199.142757 145.12649983 C1198.152757 145.12649983 1197.162757 145.12649983 1196.142757 145.12649983 C1196.142757 146.11649983 1196.142757 147.10649983 1196.142757 148.12649983 C1195.152757 148.12649983 1194.162757 148.12649983 1193.142757 148.12649983 C1193.142757 148.78649983 1193.142757 149.44649983 1193.142757 150.12649983 C1192.152757 150.12649983 1191.162757 150.12649983 1190.142757 150.12649983 C1190.142757 150.78649983 1190.142757 151.44649983 1190.142757 152.12649983 C1189.152757 152.12649983 1188.162757 152.12649983 1187.142757 152.12649983 C1187.142757 153.11649983 1187.142757 154.10649983 1187.142757 155.12649983 C1181.517757 158.12649983 1181.517757 158.12649983 1178.142757 158.12649983 C1178.142757 158.78649983 1178.142757 159.44649983 1178.142757 160.12649983 C1176.492757 160.45649983 1174.842757 160.78649983 1173.142757 161.12649983 C1173.142757 161.78649983 1173.142757 162.44649983 1173.142757 163.12649983 C779.452757 163.12649983 385.762757 163.12649983 -19.857243 163.12649983 C-19.857243 162.46649983 -19.857243 161.80649983 -19.857243 161.12649983 C-21.837243 160.79649983 -23.817243 160.46649983 -25.857243 160.12649983 C-25.857243 159.46649983 -25.857243 158.80649983 -25.857243 158.12649983 C-27.837243 157.79649983 -29.817243 157.46649983 -31.857243 157.12649983 C-31.857243 156.46649983 -31.857243 155.80649983 -31.857243 155.12649983 C-32.847243 155.12649983 -33.837243 155.12649983 -34.857243 155.12649983 C-34.857243 154.13649983 -34.857243 153.14649983 -34.857243 152.12649983 C-35.847243 152.12649983 -36.837243 152.12649983 -37.857243 152.12649983 C-37.857243 151.46649983 -37.857243 150.80649983 -37.857243 150.12649983 C-38.847243 150.12649983 -39.837243 150.12649983 -40.857243 150.12649983 C-40.857243 149.46649983 -40.857243 148.80649983 -40.857243 148.12649983 C-41.847243 148.12649983 -42.837243 148.12649983 -43.857243 148.12649983 C-43.857243 147.13649983 -43.857243 146.14649983 -43.857243 145.12649983 C-44.517243 145.12649983 -45.177243 145.12649983 -45.857243 145.12649983 C-48.20594047 143.15359396 -48.85826587 142.12343121 -49.857243 139.12649983 C-50.517243 138.79649983 -51.177243 138.46649983 -51.857243 138.12649983 C-52.187243 137.13649983 -52.517243 136.14649983 -52.857243 135.12649983 C-53.517243 134.79649983 -54.177243 134.46649983 -54.857243 134.12649983 C-55.482243 131.56399983 -55.482243 131.56399983 -55.857243 129.12649983 C-56.517243 129.12649983 -57.177243 129.12649983 -57.857243 129.12649983 C-58.352243 126.15649983 -58.352243 126.15649983 -58.857243 123.12649983 C-59.517243 123.12649983 -60.177243 123.12649983 -60.857243 123.12649983 C-61.6838265 118.80089744 -61.98365384 114.71547975 -61.98663753 110.31424397 C-61.98838985 109.66136906 -61.99014217 109.00849416 -61.99194759 108.33583516 C-61.9963206 106.19441446 -61.99344389 104.05307751 -61.9900555 101.91165608 C-61.99072993 100.41242395 -61.99170112 98.91319192 -61.99295467 97.41396016 C-61.99442555 94.27784621 -61.99229701 91.14176083 -61.9876141 88.00565022 C-61.98192212 84.00002483 -61.98519632 79.99446654 -61.99118656 75.98884362 C-61.99481286 72.89435263 -61.99364401 69.79987735 -61.99105877 66.70538586 C-61.99039496 65.2291043 -61.99119869 63.75282127 -61.99353832 62.27654141 C-61.99609838 60.20703967 -61.9921772 58.13764412 -61.98663753 56.06815022 C-61.98584194 54.89377904 -61.98504635 53.71940785 -61.98422664 52.50944966 C-61.85127474 48.96750033 -61.54320619 45.60533253 -60.857243 42.12649983 C-59.867243 41.63149983 -59.867243 41.63149983 -58.857243 41.12649983 C-58.20511008 39.10186728 -58.20511008 39.10186728 -57.857243 37.12649983 C-57.197243 37.12649983 -56.537243 37.12649983 -55.857243 37.12649983 C-55.671618 35.91993733 -55.671618 35.91993733 -55.482243 34.68899983 C-55.172868 33.42056233 -55.172868 33.42056233 -54.857243 32.12649983 C-54.197243 31.79649983 -53.537243 31.46649983 -52.857243 31.12649983 C-52.527243 30.13649983 -52.197243 29.14649983 -51.857243 28.12649983 C-51.197243 27.79649983 -50.537243 27.46649983 -49.857243 27.12649983 C-49.527243 26.13649983 -49.197243 25.14649983 -48.857243 24.12649983 C-48.197243 24.12649983 -47.537243 24.12649983 -46.857243 24.12649983 C-46.527243 23.13649983 -46.197243 22.14649983 -45.857243 21.12649983 C-45.197243 21.12649983 -44.537243 21.12649983 -43.857243 21.12649983 C-43.857243 20.13649983 -43.857243 19.14649983 -43.857243 18.12649983 C-42.867243 18.12649983 -41.877243 18.12649983 -40.857243 18.12649983 C-40.857243 17.13649983 -40.857243 16.14649983 -40.857243 15.12649983 C-39.867243 15.12649983 -38.877243 15.12649983 -37.857243 15.12649983 C-37.857243 14.46649983 -37.857243 13.80649983 -37.857243 13.12649983 C-36.867243 13.12649983 -35.877243 13.12649983 -34.857243 13.12649983 C-34.527243 12.46649983 -34.197243 11.80649983 -33.857243 11.12649983 C-30.92019844 9.11694303 -29.46501815 8.12649983 -25.857243 8.12649983 C-25.857243 7.46649983 -25.857243 6.80649983 -25.857243 6.12649983 C-23.877243 6.12649983 -21.897243 6.12649983 -19.857243 6.12649983 C-19.857243 5.13649983 -19.857243 4.14649983 -19.857243 3.12649983 C-16.887243 3.12649983 -13.917243 3.12649983 -10.857243 3.12649983 C-10.857243 2.46649983 -10.857243 1.80649983 -10.857243 1.12649983 C-7.18879874 -0.09631492 -3.81918534 -0.0113903 0 0 Z " fill="#619E90" transform="translate(172.85724300146103,1219.8735001683235)"/>
<path d="M0 0 C100.32 0 200.64 0 304 0 C304 0.66 304 1.32 304 2 C304.639375 2.103125 305.27875 2.20625 305.9375 2.3125 C310.06477326 3.23903073 314.00642949 4.61660629 318 6 C318 6.66 318 7.32 318 8 C319.65 8 321.3 8 323 8 C323 8.66 323 9.32 323 10 C324.98 10.33 326.96 10.66 329 11 C329 11.66 329 12.32 329 13 C329.928125 13.103125 330.85625 13.20625 331.8125 13.3125 C335.1504189 14.03244329 335.85146758 14.54453438 338 17 C338.99 17.33 339.98 17.66 341 18 C341 18.66 341 19.32 341 20 C341.99 20 342.98 20 344 20 C344 20.99 344 21.98 344 23 C344.99 23 345.98 23 347 23 C347 23.66 347 24.32 347 25 C347.99 25 348.98 25 350 25 C350 25.66 350 26.32 350 27 C350.99 27 351.98 27 353 27 C353 27.99 353 28.98 353 30 C353.99 30 354.98 30 356 30 C357.6875 31.3125 357.6875 31.3125 359 33 C359 33.99 359 34.98 359 36 C359.99 36.33 360.98 36.66 362 37 C362 37.66 362 38.32 362 39 C362.66 39 363.32 39 364 39 C364.33 40.32 364.66 41.64 365 43 C365.66 43 366.32 43 367 43 C369.34869747 44.97290587 370.00102287 46.00306862 371 49 C371.66 49.33 372.32 49.66 373 50 C373.33333333 51.33333333 373.66666667 52.66666667 374 54 C374.66 54.33 375.32 54.66 376 55 C376 56.32 376 57.64 376 59 C376.99 59 377.98 59 379 59 C379.33 60.65 379.66 62.3 380 64 C380.66 64 381.32 64 382 64 C382.33 65.98 382.66 67.96 383 70 C383.66 70 384.32 70 385 70 C385.33 72.31 385.66 74.62 386 77 C386.66 77 387.32 77 388 77 C388.33 79.97 388.66 82.94 389 86 C389.66 86 390.32 86 391 86 C391.33 90.29 391.66 94.58 392 99 C392.66 98.67 393.32 98.34 394 98 C394 191.72 394 285.44 394 382 C393.34 381.67 392.68 381.34 392 381 C391.67 385.29 391.34 389.58 391 394 C390.34 394 389.68 394 389 394 C388.67 396.97 388.34 399.94 388 403 C387.34 403 386.68 403 386 403 C385.67 405.31 385.34 407.62 385 410 C384.34 410 383.68 410 383 410 C382.67 411.98 382.34 413.96 382 416 C381.34 416 380.68 416 380 416 C379.67 417.65 379.34 419.3 379 421 C378.34 421 377.68 421 377 421 C376.67 422.65 376.34 424.3 376 426 C375.34 426 374.68 426 374 426 C373.87625 426.639375 373.7525 427.27875 373.625 427.9375 C373.315625 428.9584375 373.315625 428.9584375 373 430 C372.34 430.33 371.68 430.66 371 431 C370.67 431.99 370.34 432.98 370 434 C369.34 434.33 368.68 434.66 368 435 C367.67 435.99 367.34 436.98 367 438 C365.5625 439.6875 365.5625 439.6875 364 441 C363.34 441 362.68 441 362 441 C361.67 441.99 361.34 442.98 361 444 C360.34 444 359.68 444 359 444 C359 444.99 359 445.98 359 447 C358.01 447 357.02 447 356 447 C356 447.99 356 448.98 356 450 C355.01 450 354.02 450 353 450 C352.67 450.99 352.34 451.98 352 453 C349.73723205 455.71532154 347.00506603 457.19696038 344 459 C343.195625 459.8353125 343.195625 459.8353125 342.375 460.6875 C341 462 341 462 338 462 C338 462.66 338 463.32 338 464 C336.02 464.33 334.04 464.66 332 465 C332 465.66 332 466.32 332 467 C328.27721813 469.21935073 325.22634608 471.02468937 321 472 C320.67 472.66 320.34 473.32 320 474 C317.16997932 474.9384676 314.37294131 475.78044732 311.5 476.5625 C306.34757537 477.58598651 306.34757537 477.58598651 302 480 C299.35505483 480.28828987 296.70949554 480.44827384 294.0546875 480.62109375 C290.96077524 480.90257245 290.96077524 480.90257245 287.9851532 482.00780869 C283.095392 483.4280577 278.23900106 483.27647892 273.18286133 483.25396729 C272.10376149 483.25708727 271.02466166 483.26020725 269.91286182 483.26342177 C266.30252915 483.27138927 262.69236513 483.26508288 259.08203125 483.25878906 C256.49140321 483.26149947 253.90077595 483.26506068 251.31015015 483.26940918 C245.00745891 483.27829303 238.70481535 483.27638567 232.40212226 483.2705839 C227.27887058 483.26606345 222.15563225 483.26545616 217.03237915 483.26763153 C216.30265327 483.267938 215.5729274 483.26824446 214.82108861 483.26856022 C213.33857147 483.26919968 211.85605432 483.26984811 210.37353718 483.2705054 C196.47852934 483.27620574 182.5835479 483.26965545 168.68854439 483.25890467 C156.77119085 483.24996942 144.85387628 483.25152155 132.93652344 483.26074219 C119.09055153 483.27145004 105.24460275 483.27565644 91.39862728 483.26951766 C89.92162514 483.26888058 88.444623 483.26825183 86.96762085 483.26763153 C86.24094564 483.26732298 85.51427043 483.26701443 84.76557475 483.26669653 C79.64966991 483.26497114 74.53377976 483.26788133 69.4178772 483.27259064 C62.52978451 483.27879202 55.64176662 483.27436412 48.75368118 483.26280212 C46.22490181 483.26015642 43.69611624 483.26091909 41.16733932 483.26532745 C37.71718864 483.27078773 34.26727428 483.2639426 30.81713867 483.25396729 C29.81509305 483.25842873 28.81304743 483.26289017 27.78063679 483.26748681 C22.43363099 483.23747586 18.06665887 482.70891914 13 481 C10.88072133 480.61306726 8.75551653 480.25680915 6.625 479.9375 C1.10948905 479.10948905 1.10948905 479.10948905 0 478 C-1.11375 477.855625 -2.2275 477.71125 -3.375 477.5625 C-7 477 -7 477 -10 475 C-10.92039062 474.69320313 -11.84078125 474.38640625 -12.7890625 474.0703125 C-16.17455231 472.9418159 -19.19937964 471.49809485 -22.375 469.875 C-23.43460938 469.33617187 -24.49421875 468.79734375 -25.5859375 468.2421875 C-26.78089844 467.62730469 -26.78089844 467.62730469 -28 467 C-28 466.34 -28 465.68 -28 465 C-29.98 464.67 -31.96 464.34 -34 464 C-34 463.34 -34 462.68 -34 462 C-34.99 462 -35.98 462 -37 462 C-37 461.01 -37 460.02 -37 459 C-37.94875 458.87625 -38.8975 458.7525 -39.875 458.625 C-43 458 -43 458 -45 456 C-45.7734375 455.2884375 -45.7734375 455.2884375 -46.5625 454.5625 C-48 453 -48 453 -49 450 C-49.99 450 -50.98 450 -52 450 C-52 449.01 -52 448.02 -52 447 C-52.66 447 -53.32 447 -54 447 C-55.35386936 445.34997172 -56.68678142 443.6825613 -58 442 C-58.66 441.67 -59.32 441.34 -60 441 C-60 440.01 -60 439.02 -60 438 C-60.99 438 -61.98 438 -63 438 C-63.33 437.01 -63.66 436.02 -64 435 C-64.66 434.67 -65.32 434.34 -66 434 C-66 432.68 -66 431.36 -66 430 C-66.99 430 -67.98 430 -69 430 C-69.66 428.68 -70.32 427.36 -71 426 C-71.33 426 -71.66 426 -72 426 C-72.33 424.35 -72.66 422.7 -73 421 C-73.66 421 -74.32 421 -75 421 C-75.33 419.35 -75.66 417.7 -76 416 C-76.66 416 -77.32 416 -78 416 C-78.33 414.02 -78.66 412.04 -79 410 C-79.66 410 -80.32 410 -81 410 C-81 407.36 -81 404.72 -81 402 C-81.99 402.33 -82.98 402.66 -84 403 C-84 399.7 -84 396.4 -84 393 C-84.99 393.33 -85.98 393.66 -87 394 C-87.495 387.565 -87.495 387.565 -88 381 C-88.66 381.33 -89.32 381.66 -90 382 C-90 288.28 -90 194.56 -90 98 C-89.34 98.33 -88.68 98.66 -88 99 C-87.67 94.71 -87.34 90.42 -87 86 C-86.01 86.33 -85.02 86.66 -84 87 C-84 83.7 -84 80.4 -84 77 C-83.34 77 -82.68 77 -82 77 C-81.67 74.69 -81.34 72.38 -81 70 C-80.34 70 -79.68 70 -79 70 C-78.67 68.02 -78.34 66.04 -78 64 C-77.34 64 -76.68 64 -76 64 C-75.67 62.35 -75.34 60.7 -75 59 C-74.34 59 -73.68 59 -73 59 C-72.67 57.35 -72.34 55.7 -72 54 C-71.34 54 -70.68 54 -70 54 C-69.87625 53.360625 -69.7525 52.72125 -69.625 52.0625 C-69.315625 51.0415625 -69.315625 51.0415625 -69 50 C-68.01 49.505 -68.01 49.505 -67 49 C-66.67 48.01 -66.34 47.02 -66 46 C-64.33333333 44.66666667 -62.66666667 43.33333333 -61 42 C-60.67 41.01 -60.34 40.02 -60 39 C-58.5625 37.3125 -58.5625 37.3125 -57 36 C-56.34 36 -55.68 36 -55 36 C-54.67 35.01 -54.34 34.02 -54 33 C-53.34 33 -52.68 33 -52 33 C-52 32.01 -52 31.02 -52 30 C-51.01 30 -50.02 30 -49 30 C-48.505 28.515 -48.505 28.515 -48 27 C-47.34 26.34 -46.68 25.68 -46 25 C-45.01 25 -44.02 25 -43 25 C-43 24.34 -43 23.68 -43 23 C-42.01 23 -41.02 23 -40 23 C-40 22.01 -40 21.02 -40 20 C-39.01 20 -38.02 20 -37 20 C-37 19.34 -37 18.68 -37 18 C-36.195625 17.71125 -35.39125 17.4225 -34.5625 17.125 C-31.8673532 16.26737432 -31.8673532 16.26737432 -31 14 C-29.33333333 13.66666667 -27.66666667 13.33333333 -26 13 C-25.67 12.34 -25.34 11.68 -25 11 C-23.33333333 10.66666667 -21.66666667 10.33333333 -20 10 C-19.67 9.34 -19.34 8.68 -19 8 C-17.33333333 7.66666667 -15.66666667 7.33333333 -14 7 C-13.67 6.34 -13.34 5.68 -13 5 C-11.07421875 4.1484375 -11.07421875 4.1484375 -8.6875 3.375 C-7.90761719 3.11460938 -7.12773438 2.85421875 -6.32421875 2.5859375 C-4 2 -4 2 0 2 C0 1.34 0 0.68 0 0 Z M119.4375 113.97265625 C118.15075761 115.93091733 117.0674828 117.9145961 116 120 C115.5359375 120.79792969 115.071875 121.59585938 114.59375 122.41796875 C110.12856478 130.81499761 109.46301936 139.53564025 111.6640625 148.79296875 C112.59616091 151.34205527 113.6898735 153.62322184 115 156 C115.50917969 156.92683594 116.01835938 157.85367188 116.54296875 158.80859375 C122.80936776 169.37686851 131.07758954 176.13154104 142.625 180.3125 C154.05589505 182.66256425 165.50771057 181.75796515 175.4296875 175.45703125 C185.62406771 167.95712527 193.59178484 157.72551592 196 145 C197.81207382 132.55833849 192.99320968 121.44749918 186.15625 111.25 C184.53904731 109.30935677 182.9147497 107.64371207 181 106 C180.43539062 105.5153125 179.87078125 105.030625 179.2890625 104.53125 C171.33363537 98.33969585 163.41933436 97.4766245 153.625 97.5 C152.5525 97.47164063 151.48 97.44328125 150.375 97.4140625 C137.28511867 97.38221364 127.48746066 103.80958092 119.4375 113.97265625 Z M237.6875 174.8125 C235.40099665 177.3461929 233.68560822 180.03011885 232 183 C231.525625 183.45375 231.05125 183.9075 230.5625 184.375 C228.77561513 186.08461744 228.77561513 186.08461744 227.375 189.0625 C221.72640342 199.24286038 211.02390092 210.49635069 199.85546875 214.375 C185.4395668 217.53032738 173.10442035 212.84195251 160.0546875 207.234375 C139.11311874 198.7720531 121.51981811 200.31901373 100.9375 208.66796875 C96.35609712 210.74544 92.19767551 213.23773652 88 216 C87.44054687 216.36254883 86.88109375 216.72509766 86.3046875 217.09863281 C78.19821883 222.35490159 70.3461525 227.85551384 62.67626953 233.73583984 C60.74882525 235.18942366 58.79603083 236.60487997 56.83984375 238.01953125 C56.12111084 238.54434082 55.40237793 239.06915039 54.66186523 239.60986328 C53.25668817 240.63530136 51.84628788 241.65363321 50.42993164 242.66357422 C45.73895293 246.11246258 42.06605709 249.55715989 40.28515625 255.30859375 C39.70526644 260.85315417 40.38767108 264.06560094 43 269 C43.40412109 269.99966797 43.40412109 269.99966797 43.81640625 271.01953125 C46.20436147 275.0152187 50.71206684 276.62106114 55 278 C63.03986019 278.0429939 70.32637311 271.9212367 76.3125 267.1875 C81.7567878 262.93676761 87.26236274 258.85129077 93 255 C93.62422852 254.58073242 94.24845703 254.16146484 94.89160156 253.72949219 C120.06866362 236.90154486 120.06866362 236.90154486 132.25 236.8125 C133.12140625 236.79832031 133.9928125 236.78414063 134.890625 236.76953125 C142.37067394 237.32395699 149.10083174 239.61674631 156 242.4375 C175.10897962 250.15076 193.91945497 253.37456537 213.75 246 C223.77071 241.65726022 235.10600905 234.04289227 242 225.5625 C243.7512902 223.45471306 245.46805362 221.54394775 247.4375 219.625 C250.33379232 216.6580664 252.79303187 213.49183338 255.30078125 210.1953125 C256.70849589 208.37660991 258.16182249 206.6556476 259.6875 204.9375 C262.01790013 201.977262 263.55332867 199.14247833 265.10546875 195.734375 C266 194 266 194 268 192 C269.06431108 187.29929274 269.42692138 184.22073283 267 180 C263.3342461 174.25230225 259.75366964 172.07554974 253.171875 170.41015625 C247.42169993 169.32424189 241.86152451 170.74308763 237.6875 174.8125 Z M98.55859375 295.0859375 C95.28367545 296.87257661 91.9369318 298.47102775 88.5625 300.0625 C83.57103439 302.51709435 79.46826412 305.55260591 75.25390625 309.16796875 C73 311 73 311 70.21484375 312.61328125 C69.48394531 313.07089844 68.75304687 313.52851563 68 314 C68 314.66 68 315.32 68 316 C66.515 316.495 66.515 316.495 65 317 C61.14284652 322.28981048 60.05371787 326.5029654 61 333 C62.68782401 338.24113772 64.96569174 342.2287988 69 346 C72.75315081 347.78895321 76.14490496 348.41585318 80.23046875 347.5 C85.72053605 345.32340695 89.97264421 341.76541201 94.46875 338.01171875 C97.63224017 335.49752518 100.95987991 333.49982102 104.45703125 331.48828125 C107.07856514 329.95401948 109.59268981 328.30185114 112.125 326.625 C125.05546323 318.36336411 148.56582157 303.36729352 164 305 C166.51896068 307.17546604 168.5050985 309.010197 170 312 C170.08971755 314.02593447 170.11469238 316.05484881 170.11010742 318.08276367 C170.11068649 319.36136765 170.11126556 320.63997162 170.11186218 321.95732117 C170.11043402 322.64303381 170.10900585 323.32874645 170.10753441 324.03523827 C170.10401391 327.67005173 170.12982551 331.30471061 170.15039062 334.93945312 C170.17469159 339.56336344 170.19046694 344.18682588 170.17504883 348.81079102 C170.16335204 352.54825792 170.18087929 356.28461248 170.21749306 360.0219059 C170.2260814 361.44234134 170.22406934 362.86288397 170.210989 364.28328514 C169.92296383 373.40094713 169.92296383 373.40094713 173.8137207 381.30200195 C177.74956998 385.13077991 182.00024007 386.84714599 187.453125 387.125 C193.49692022 386.82837201 198.6378664 385.3411618 203 381 C213.6594787 363.90041958 208.35498831 324.92335429 204.46191406 305.97509766 C203.46310789 301.70430383 202.00144442 297.88852059 200 294 C199.6184375 293.154375 199.236875 292.30875 198.84375 291.4375 C194.54403932 282.17658469 189.53361191 276.07275901 180 272 C152.29864659 262.75536502 122.04098779 282.25430533 98.55859375 295.0859375 Z " fill="#619E90" transform="translate(597,105)"/>
<path d="M0 0 C1.07842539 -0.00384115 2.15685078 -0.00768229 3.26795572 -0.01163983 C4.45722573 -0.01077335 5.64649574 -0.00990687 6.87180424 -0.00901413 C8.76180081 -0.01347081 8.76180081 -0.01347081 10.68997914 -0.01801753 C14.19452567 -0.02609569 17.69905174 -0.02787756 21.20360649 -0.028615 C24.98092027 -0.03046424 28.75822341 -0.03801114 32.53553104 -0.04475021 C40.80035688 -0.05834195 49.06517788 -0.06436015 57.33001304 -0.06876087 C62.49227072 -0.07152304 67.65452653 -0.07576046 72.81678295 -0.08026505 C87.11271484 -0.09246101 101.40864523 -0.10275824 115.70458221 -0.10614014 C117.07758528 -0.10646949 117.07758528 -0.10646949 118.47832579 -0.10680549 C119.85461189 -0.10713291 119.85461189 -0.10713291 121.25870174 -0.10746694 C123.11794086 -0.1079104 124.97717998 -0.10835696 126.83641911 -0.10880661 C127.75866546 -0.10902804 128.6809118 -0.10924947 129.63110501 -0.10947761 C144.56050622 -0.11342197 159.4898585 -0.13086347 174.41924082 -0.15416613 C189.75140394 -0.1779039 205.08354255 -0.19034317 220.41572434 -0.19150805 C229.0222401 -0.19242369 237.6286922 -0.19814743 246.23519039 -0.21632767 C253.56753355 -0.23176171 260.89979339 -0.23682985 268.23214971 -0.22858956 C271.97033686 -0.22469412 275.7083564 -0.22555806 279.44652271 -0.23964691 C283.50824353 -0.2548144 287.56958997 -0.24648624 291.63132572 -0.23606491 C293.38511599 -0.24814952 293.38511599 -0.24814952 295.17433637 -0.26047826 C306.21538737 -0.19444765 315.94706083 2.21840171 325.82299137 7.13142776 C325.82299137 7.79142776 325.82299137 8.45142776 325.82299137 9.13142776 C326.81299137 9.13142776 327.80299137 9.13142776 328.82299137 9.13142776 C328.82299137 9.79142776 328.82299137 10.45142776 328.82299137 11.13142776 C330.80299137 11.46142776 332.78299137 11.79142776 334.82299137 12.13142776 C334.82299137 13.12142776 334.82299137 14.11142776 334.82299137 15.13142776 C335.81299137 15.13142776 336.80299137 15.13142776 337.82299137 15.13142776 C337.82299137 16.12142776 337.82299137 17.11142776 337.82299137 18.13142776 C338.81299137 18.13142776 339.80299137 18.13142776 340.82299137 18.13142776 C342.96153987 20.26997626 343.249542 21.2641809 343.82299137 24.13142776 C344.81299137 24.13142776 345.80299137 24.13142776 346.82299137 24.13142776 C346.82299137 25.12142776 346.82299137 26.11142776 346.82299137 27.13142776 C347.48299137 27.13142776 348.14299137 27.13142776 348.82299137 27.13142776 C349.15299137 28.45142776 349.48299137 29.77142776 349.82299137 31.13142776 C350.48299137 31.13142776 351.14299137 31.13142776 351.82299137 31.13142776 C351.94674137 31.77080276 352.07049137 32.41017776 352.19799137 33.06892776 C352.40424137 33.74955276 352.61049137 34.43017776 352.82299137 35.13142776 C353.48299137 35.46142776 354.14299137 35.79142776 354.82299137 36.13142776 C355.54993041 38.11031737 356.22115388 40.11097334 356.82299137 42.13142776 C357.15299137 42.13142776 357.48299137 42.13142776 357.82299137 42.13142776 C358.15299137 45.10142776 358.48299137 48.07142776 358.82299137 51.13142776 C359.48299137 51.13142776 360.14299137 51.13142776 360.82299137 51.13142776 C360.82299137 89.41142776 360.82299137 127.69142776 360.82299137 167.13142776 C360.16299137 167.13142776 359.50299137 167.13142776 358.82299137 167.13142776 C358.774007 167.7695137 358.72502262 168.40759964 358.67455387 169.06502151 C358.59978825 169.89131058 358.52502262 170.71759964 358.44799137 171.56892776 C358.378382 172.3926387 358.30877262 173.21634964 358.23705387 174.06502151 C358.10041325 174.74693558 357.96377262 175.42884964 357.82299137 176.13142776 C357.16299137 176.46142776 356.50299137 176.79142776 355.82299137 177.13142776 C355.17085845 179.15606032 355.17085845 179.15606032 354.82299137 181.13142776 C354.16299137 181.13142776 353.50299137 181.13142776 352.82299137 181.13142776 C352.49299137 182.78142776 352.16299137 184.43142776 351.82299137 186.13142776 C351.16299137 186.13142776 350.50299137 186.13142776 349.82299137 186.13142776 C349.49299137 187.78142776 349.16299137 189.43142776 348.82299137 191.13142776 C348.16299137 191.13142776 347.50299137 191.13142776 346.82299137 191.13142776 C346.82299137 192.12142776 346.82299137 193.11142776 346.82299137 194.13142776 C346.16299137 194.46142776 345.50299137 194.79142776 344.82299137 195.13142776 C344.16299137 196.12142776 343.50299137 197.11142776 342.82299137 198.13142776 C340.70325322 200.54022112 338.66839735 201.70872478 335.82299137 203.13142776 C335.49299137 203.79142776 335.16299137 204.45142776 334.82299137 205.13142776 C333.83299137 205.13142776 332.84299137 205.13142776 331.82299137 205.13142776 C331.49299137 206.12142776 331.16299137 207.11142776 330.82299137 208.13142776 C329.17299137 208.46142776 327.52299137 208.79142776 325.82299137 209.13142776 C325.82299137 209.79142776 325.82299137 210.45142776 325.82299137 211.13142776 C323.84299137 211.46142776 321.86299137 211.79142776 319.82299137 212.13142776 C319.82299137 212.79142776 319.82299137 213.45142776 319.82299137 214.13142776 C317.84299137 214.13142776 315.86299137 214.13142776 313.82299137 214.13142776 C313.82299137 214.79142776 313.82299137 215.45142776 313.82299137 216.13142776 C301.49903733 222.29340479 282.17419107 219.41771894 268.86008477 219.3928771 C265.22694469 219.3883046 261.59382297 219.39535954 257.96068668 219.40083694 C250.86747712 219.40967928 243.77431014 219.40783291 236.68109898 219.40201166 C230.91684532 219.39747828 225.15260352 219.39688947 219.38834858 219.3990593 C218.56519111 219.39936576 217.74203363 219.39967223 216.89393199 219.39998798 C215.22136492 219.40062747 213.54879785 219.4012759 211.87623079 219.40193316 C196.23673999 219.40762039 180.59727274 219.40110203 164.9577858 219.39033243 C151.54386473 219.38138167 138.12997824 219.38296461 124.71605778 219.39216995 C109.11357194 219.40287228 93.51110661 219.40708874 77.90861762 219.40094543 C76.24557058 219.40030835 74.58252355 219.39967961 72.91947651 219.3990593 C72.10133573 219.39875074 71.28319494 219.39844219 70.44026201 219.39812429 C64.67907383 219.39639849 58.91789869 219.39930964 53.15671253 219.4040184 C46.14218862 219.40962607 39.12770948 219.40811249 32.1131907 219.39745691 C28.53569038 219.39220125 24.95826472 219.39014191 21.38076496 219.39675522 C17.50382937 219.40381388 13.62701606 219.39538563 9.75008488 219.38539505 C8.05341744 219.39208722 8.05341744 219.39208722 6.32247388 219.39891458 C1.10096642 219.37273254 -3.30239967 219.25922282 -8.17700863 217.13142776 C-8.17700863 216.47142776 -8.17700863 215.81142776 -8.17700863 215.13142776 C-9.16700863 215.13142776 -10.15700863 215.13142776 -11.17700863 215.13142776 C-11.83700863 214.14142776 -12.49700863 213.15142776 -13.17700863 212.13142776 C-13.50700863 212.13142776 -13.83700863 212.13142776 -14.17700863 212.13142776 C-14.50700863 209.82142776 -14.83700863 207.51142776 -15.17700863 205.13142776 C-15.83700863 205.46142776 -16.49700863 205.79142776 -17.17700863 206.13142776 C-17.17700863 142.44142776 -17.17700863 78.75142776 -17.17700863 13.13142776 C-16.51700863 13.13142776 -15.85700863 13.13142776 -15.17700863 13.13142776 C-14.84700863 10.82142776 -14.51700863 8.51142776 -14.17700863 6.13142776 C-13.51700863 6.13142776 -12.85700863 6.13142776 -12.17700863 6.13142776 C-11.84700863 5.14142776 -11.51700863 4.15142776 -11.17700863 3.13142776 C-10.18700863 3.13142776 -9.19700863 3.13142776 -8.17700863 3.13142776 C-8.17700863 2.47142776 -8.17700863 1.81142776 -8.17700863 1.13142776 C-5.15938893 0.12555453 -3.1543719 0.00420948 0 0 Z " fill="#619E90" transform="translate(1028.1770086288452,235.86857223510742)"/>
<path d="M0 0 C1.27147436 -0.00241442 2.54294872 -0.00482883 3.8529526 -0.00731641 C7.36135582 -0.01369605 10.86964266 -0.00768826 14.37803817 0.00044787 C18.16938744 0.00705116 21.96072425 0.00207079 25.7520752 -0.00143433 C33.16942903 -0.00646539 40.58673814 -0.00084911 48.00408642 0.00841597 C56.64080386 0.01881558 65.27751171 0.0187294 73.91423424 0.01824339 C89.31934796 0.01774324 104.72444089 0.02689329 120.12954712 0.04142761 C135.08332701 0.05552883 150.03708861 0.06259772 164.99087524 0.06193542 C165.91278315 0.06189547 166.83469106 0.06185551 167.78453557 0.06181435 C169.16499462 0.06175381 169.16499462 0.06175381 170.57334173 0.06169206 C187.59748287 0.06100275 204.62161624 0.06688727 221.64575487 0.07584528 C227.6692565 0.07886408 233.6927567 0.07992511 239.716259 0.08037758 C247.04979484 0.08105878 254.38331756 0.08551067 261.71684782 0.09471039 C265.45997914 0.09933532 269.20309365 0.1023713 272.94622803 0.10111618 C276.9975367 0.09982355 281.04879532 0.10625311 285.10009766 0.11352539 C286.29141403 0.11197679 287.4827304 0.11042819 288.71014726 0.10883266 C290.33056049 0.11366933 290.33056049 0.11366933 291.98370934 0.11860371 C292.91939794 0.11930813 293.85508654 0.12001256 294.81912935 0.12073833 C297.1690979 0.24723816 297.1690979 0.24723816 300.1690979 1.24723816 C300.1690979 1.90723816 300.1690979 2.56723816 300.1690979 3.24723816 C301.1590979 3.24723816 302.1490979 3.24723816 303.1690979 3.24723816 C303.8290979 4.23723816 304.4890979 5.22723816 305.1690979 6.24723816 C305.4990979 6.24723816 305.8290979 6.24723816 306.1690979 6.24723816 C306.4990979 8.55723816 306.8290979 10.86723816 307.1690979 13.24723816 C307.8290979 13.24723816 308.4890979 13.24723816 309.1690979 13.24723816 C309.1690979 76.60723816 309.1690979 139.96723816 309.1690979 205.24723816 C308.5090979 205.24723816 307.8490979 205.24723816 307.1690979 205.24723816 C306.8390979 207.55723816 306.5090979 209.86723816 306.1690979 212.24723816 C305.5090979 212.24723816 304.8490979 212.24723816 304.1690979 212.24723816 C303.8390979 213.23723816 303.5090979 214.22723816 303.1690979 215.24723816 C302.1790979 215.24723816 301.1890979 215.24723816 300.1690979 215.24723816 C300.1690979 215.90723816 300.1690979 216.56723816 300.1690979 217.24723816 C294.28258236 219.8167363 288.54025441 219.52604763 282.24200439 219.50120544 C280.42590025 219.50588542 280.42590025 219.50588542 278.57310712 219.51065993 C275.21980472 219.51725157 271.86672671 219.51488633 268.51343799 219.5086875 C264.89356389 219.50416018 261.27370932 219.51114849 257.65383911 219.51664734 C250.56258752 219.52554267 243.47137826 219.52361792 236.380125 219.51782206 C230.61095073 219.51330257 224.8417883 219.51269392 219.07261276 219.51486969 C217.84017505 219.51532939 217.84017505 219.51532939 216.5828396 219.51579838 C214.9135145 219.51643785 213.24418941 219.51708628 211.57486431 219.51774356 C195.91603901 219.52344818 180.25723712 219.51688874 164.59841566 219.50614282 C151.18755708 219.49722386 137.77673318 219.49874542 124.36587524 219.50798035 C108.77801518 219.51870944 93.19017569 219.52288132 77.60231245 219.51675582 C75.93612186 219.51611876 74.26993128 219.51549002 72.60374069 219.51486969 C71.78405715 219.51456114 70.96437361 219.51425259 70.11985118 219.51393469 C64.36848648 219.5122144 58.61713491 219.51510877 52.86577225 219.5198288 C45.8403126 219.52546774 38.81489758 219.52385905 31.78944297 219.51326731 C28.21077329 219.50804826 24.63217772 219.50588843 21.05350876 219.51256561 C-15.17627065 219.57455388 -15.17627065 219.57455388 -21.8309021 216.24723816 C-21.8309021 215.58723816 -21.8309021 214.92723816 -21.8309021 214.24723816 C-23.8109021 214.24723816 -25.7909021 214.24723816 -27.8309021 214.24723816 C-27.8309021 213.58723816 -27.8309021 212.92723816 -27.8309021 212.24723816 C-29.8109021 211.91723816 -31.7909021 211.58723816 -33.8309021 211.24723816 C-33.8309021 210.58723816 -33.8309021 209.92723816 -33.8309021 209.24723816 C-35.8109021 208.91723816 -37.7909021 208.58723816 -39.8309021 208.24723816 C-39.8309021 207.25723816 -39.8309021 206.26723816 -39.8309021 205.24723816 C-40.8209021 205.24723816 -41.8109021 205.24723816 -42.8309021 205.24723816 C-42.8309021 204.58723816 -42.8309021 203.92723816 -42.8309021 203.24723816 C-43.8209021 203.24723816 -44.8109021 203.24723816 -45.8309021 203.24723816 C-45.8309021 202.25723816 -45.8309021 201.26723816 -45.8309021 200.24723816 C-46.8209021 200.24723816 -47.8109021 200.24723816 -48.8309021 200.24723816 C-48.8309021 199.58723816 -48.8309021 198.92723816 -48.8309021 198.24723816 C-49.4909021 198.24723816 -50.1509021 198.24723816 -50.8309021 198.24723816 C-51.1609021 196.92723816 -51.4909021 195.60723816 -51.8309021 194.24723816 C-52.4909021 194.24723816 -53.1509021 194.24723816 -53.8309021 194.24723816 C-56.48081152 192.12731062 -57.07761036 190.47563131 -57.8309021 187.24723816 C-58.4909021 186.91723816 -59.1509021 186.58723816 -59.8309021 186.24723816 C-60.9559021 184.18473816 -60.9559021 184.18473816 -61.8309021 182.24723816 C-62.1609021 182.24723816 -62.4909021 182.24723816 -62.8309021 182.24723816 C-62.9546521 181.44286316 -63.0784021 180.63848816 -63.2059021 179.80973816 C-63.4121521 178.96411316 -63.6184021 178.11848816 -63.8309021 177.24723816 C-64.4909021 176.91723816 -65.1509021 176.58723816 -65.8309021 176.24723816 C-67.17418729 170.08228012 -66.97200803 163.83074715 -66.96029663 157.54801941 C-66.96204895 156.38781281 -66.96380127 155.2276062 -66.96560669 154.03224182 C-66.96999762 150.20805859 -66.9670969 146.38392184 -66.9637146 142.55973816 C-66.96438843 139.89608198 -66.96535768 137.23242719 -66.96661377 134.56877136 C-66.96842979 128.99055989 -66.96604405 123.41236168 -66.96127319 117.83415222 C-66.95583167 111.39770475 -66.95759472 104.96128897 -66.9630996 98.52484226 C-66.9676469 92.98493206 -66.96827337 87.44503136 -66.96566093 81.9051199 C-66.96410705 78.6023746 -66.96427631 75.29964734 -66.96719742 71.99690247 C-66.96974043 68.31339891 -66.96586001 64.62995596 -66.96029663 60.94645691 C-66.96333298 59.31757034 -66.96333298 59.31757034 -66.96643066 57.65577698 C-66.93756887 47.32624466 -66.93756887 47.32624466 -65.8309021 42.24723816 C-64.8409021 41.75223816 -64.8409021 41.75223816 -63.8309021 41.24723816 C-63.6659021 40.42223816 -63.5009021 39.59723816 -63.3309021 38.74723816 C-63.1659021 37.92223816 -63.0009021 37.09723816 -62.8309021 36.24723816 C-61.8409021 35.75223816 -61.8409021 35.75223816 -60.8309021 35.24723816 C-60.6659021 34.58723816 -60.5009021 33.92723816 -60.3309021 33.24723816 C-60.1659021 32.58723816 -60.0009021 31.92723816 -59.8309021 31.24723816 C-59.1709021 30.91723816 -58.5109021 30.58723816 -57.8309021 30.24723816 C-57.5009021 29.25723816 -57.1709021 28.26723816 -56.8309021 27.24723816 C-55.3934021 25.55973816 -55.3934021 25.55973816 -53.8309021 24.24723816 C-53.1709021 24.24723816 -52.5109021 24.24723816 -51.8309021 24.24723816 C-51.5009021 23.25723816 -51.1709021 22.26723816 -50.8309021 21.24723816 C-50.1709021 21.24723816 -49.5109021 21.24723816 -48.8309021 21.24723816 C-48.8309021 20.25723816 -48.8309021 19.26723816 -48.8309021 18.24723816 C-47.8409021 18.24723816 -46.8509021 18.24723816 -45.8309021 18.24723816 C-45.8309021 17.25723816 -45.8309021 16.26723816 -45.8309021 15.24723816 C-44.8409021 15.24723816 -43.8509021 15.24723816 -42.8309021 15.24723816 C-42.8309021 14.25723816 -42.8309021 13.26723816 -42.8309021 12.24723816 C-40.8509021 11.91723816 -38.8709021 11.58723816 -36.8309021 11.24723816 C-36.8309021 10.58723816 -36.8309021 9.92723816 -36.8309021 9.24723816 C-35.8409021 9.24723816 -34.8509021 9.24723816 -33.8309021 9.24723816 C-33.8309021 8.58723816 -33.8309021 7.92723816 -33.8309021 7.24723816 C-32.02276335 6.44566057 -30.20909837 5.65654641 -28.3934021 4.87223816 C-27.38406616 4.43137878 -26.37473022 3.99051941 -25.33480835 3.53630066 C-16.87407111 0.42365485 -8.97318647 -0.03918235 0 0 Z " fill="#619E90" transform="translate(177.83090209960938,235.7527618408203)"/>
<path d="M0 0 C4.80916688 2.33409077 9.07092351 5.93617421 11 11 C11.7101573 15.33195954 11.96724831 17.5323619 9.53515625 21.22265625 C5.25299984 26.21096107 1.9208381 29.27863102 -4.87890625 29.96484375 C-9.49253633 30.04131276 -12.98845036 28.65188754 -16.8125 26.1875 C-20.41825414 22.58174586 -21.11443135 19.47647491 -21.3125 14.5 C-21.2071014 10.52779009 -20.59554221 8.13255094 -18 5 C-12.172422 -0.11689776 -7.69988742 -1.09998392 0 0 Z " fill="#619E90" transform="translate(756,229)"/>
</svg>
