<?xml version="1.0" encoding="UTF-8"?>
<svg version="1.1" xmlns="http://www.w3.org/2000/svg" width="1500" height="1500">
<path d="M0 0 C1.99131451 -0.00043714 3.98262896 -0.00131465 5.97394311 -0.00258917 C11.39463615 -0.00480617 16.81530911 -0.0008515 22.23599958 0.0041889 C28.10076867 0.00853371 33.96553676 0.00704413 39.83030701 0.00628662 C49.9744455 0.00576393 60.11857752 0.00888406 70.26271439 0.01452446 C80.89304252 0.02043133 91.52336822 0.02429348 102.15369797 0.02537727 C102.81652076 0.02544601 103.47934356 0.02551475 104.16225189 0.02558558 C107.52887214 0.02592394 110.8954924 0.02622531 114.26211266 0.02651245 C138.06124865 0.02860866 161.86038128 0.03533425 185.65951538 0.04481506 C208.76921572 0.05401055 231.87891514 0.06108874 254.98861694 0.06532288 C256.05854491 0.06552017 256.05854491 0.06552017 257.15008758 0.06572144 C264.31368298 0.06704005 271.47727839 0.06831585 278.64087381 0.0695603 C293.23183503 0.072096 307.82279619 0.07491725 322.41375732 0.07791138 C323.0845153 0.07804867 323.75527327 0.07818596 324.44635725 0.07832741 C369.18114835 0.08751638 413.91593754 0.1033811 458.65072632 0.12025452 C459.9279339 3.8165346 460.90074812 6.86845349 460.85327148 10.7900238 C460.84760666 11.67334381 460.84194183 12.55666382 460.83610535 13.4667511 C460.81956406 14.41765625 460.80302277 15.3685614 460.78598022 16.34828186 C460.77178795 17.87115311 460.77178795 17.87115311 460.75730896 19.42478943 C460.72372572 22.76877724 460.67558408 26.11238703 460.62728882 29.45619202 C460.60111198 31.77931236 460.57584576 34.10244313 460.55145264 36.42558289 C460.48489704 42.5314201 460.40598325 48.63703732 460.32449341 54.74269104 C460.24348044 60.97653274 460.17415813 67.21050325 460.10385132 73.44447327 C459.96424997 85.66988806 459.81159238 97.89510233 459.65072632 110.12025452 C453.84578454 110.8640861 448.16501959 111.26327724 442.31473827 111.23492241 C441.52285507 111.23517746 440.73097187 111.23543252 439.9150922 111.2356953 C437.27536313 111.23533605 434.63570465 111.22781678 431.99598694 111.22032166 C430.07873992 111.21860846 428.16149246 111.21734677 426.24424487 111.21649659 C420.98600205 111.21291572 415.72778638 111.20311792 410.46955407 111.192343 C404.79458702 111.18184513 399.11961504 111.17722566 393.44464111 111.17201233 C383.61303376 111.16230694 373.78143547 111.14926729 363.94983482 111.13428879 C348.40773841 111.11090319 332.86564133 111.09791142 317.3235321 111.08659363 C312.00421806 111.08259233 306.68490407 111.07852467 301.3655901 111.07443428 C300.36955401 111.07367149 300.36955401 111.07367149 299.35339598 111.07289329 C283.55610132 111.06076616 267.75880902 111.0463997 251.96151733 111.03089905 C251.27053057 111.03022388 250.5795438 111.02954872 249.86761804 111.0288531 C233.74722084 111.01306244 217.62682841 110.99513735 201.50643921 110.97254944 C200.81313275 110.97157817 200.11982629 110.9706069 199.40551055 110.96960619 C193.81689638 110.96175928 188.22828231 110.95383739 182.63966827 110.94589593 C158.93114124 110.91226707 135.2226285 110.89000721 111.51407939 110.87865937 C97.32340659 110.87143687 83.13280804 110.85473908 68.94216249 110.82585861 C59.21749498 110.80685796 49.49285707 110.7987734 39.76817115 110.79926358 C34.15861107 110.79920058 28.54916754 110.79423498 22.93963432 110.77609634 C17.80068525 110.75957681 12.66192167 110.75700449 7.52295456 110.76534511 C5.66770023 110.7659174 3.81243571 110.76143699 1.95720907 110.75128375 C-16.34879992 110.30082255 -16.34879992 110.30082255 -32.04458618 118.52259827 C-36.6489996 124.16093686 -36.4981076 130.94547261 -36.47790813 137.92927456 C-36.48053769 139.08629587 -36.48053769 139.08629587 -36.48322037 140.26669136 C-36.48787688 142.85457003 -36.48541576 145.44239243 -36.48298645 148.03027344 C-36.48485459 149.90312275 -36.48715531 151.77597168 -36.48985177 153.64881998 C-36.49597567 158.79806854 -36.49583549 163.94730088 -36.4946574 169.09655225 C-36.49445354 174.64878234 -36.49997064 180.2010072 -36.50471497 185.75323486 C-36.51302499 196.6314498 -36.51576995 207.50965932 -36.51632734 218.38787716 C-36.51680228 227.2277787 -36.51885588 236.06767845 -36.52202797 244.90757942 C-36.5294017 265.88275481 -36.5355527 286.85792923 -36.53502941 307.83310604 C-36.53501383 308.50385197 -36.53499825 309.17459791 -36.5349822 309.86566947 C-36.5348991 313.26530215 -36.53480005 316.66493482 -36.5346975 320.0645675 C-36.53467755 320.73974969 -36.5346576 321.41493187 -36.53463706 322.11057413 C-36.53459662 323.47595622 -36.53455482 324.84133832 -36.53451166 326.20672041 C-36.53389876 347.45516765 -36.54140847 368.70359895 -36.55508423 389.95204163 C-36.57044148 413.82292759 -36.57903802 437.69380316 -36.57812101 461.56469542 C-36.57778868 474.20466655 -36.58055163 486.8446197 -36.59129906 499.48458672 C-36.60038909 510.2443689 -36.6025916 521.00412492 -36.59578963 531.76390927 C-36.59251703 537.25533405 -36.59249441 542.74670861 -36.60114288 548.23812866 C-36.60897601 553.26341821 -36.60760921 558.28861745 -36.59885875 563.31390471 C-36.59731673 565.13348834 -36.59916621 566.9530786 -36.60471883 568.77265441 C-36.61176101 571.24367714 -36.60649938 573.7143815 -36.59816265 576.18539333 C-36.60313083 576.89366198 -36.60809901 577.60193063 -36.61321774 578.33166197 C-36.5805385 582.90573408 -35.76674784 586.78263534 -34.34927368 591.12025452 C-34.06052368 592.04837952 -33.77177368 592.97650452 -33.47427368 593.93275452 C-32.08928854 596.62578118 -31.11959861 597.01212455 -28.34927368 598.12025452 C-27.58614868 598.63587952 -26.82302368 599.15150452 -26.03677368 599.68275452 C-19.24429228 603.31594225 -10.66556511 602.26015684 -3.18538666 602.24609566 C-1.83376346 602.24713944 -0.48214055 602.24862118 0.86948174 602.25050002 C4.5897348 602.25439749 8.30996193 602.25206229 12.03021457 602.24872207 C16.07529635 602.24618794 20.12037413 602.24944427 24.16545534 602.2519654 C31.25702496 602.25558028 38.34858697 602.25546556 45.44015694 602.25291824 C55.9854592 602.2491406 66.53075502 602.25106699 77.07605724 602.25412655 C95.90838318 602.25939693 114.74070574 602.25893405 133.57303201 602.25604764 C150.05332195 602.25353406 166.53361066 602.25287446 183.01390076 602.25407028 C184.10623132 602.25414667 185.19856187 602.25422305 186.32399336 602.25430175 C190.7578969 602.25461308 195.19180044 602.25493148 199.62570398 602.25526152 C241.23603937 602.25832189 282.8463726 602.25554488 324.45670766 602.25016462 C361.44114082 602.24541886 398.42557054 602.24584348 435.41000366 602.25062561 C476.94326884 602.25597793 518.4765321 602.25810486 560.00979757 602.25501335 C564.43571567 602.25469262 568.86163378 602.25437978 573.28755188 602.25407028 C574.37736015 602.2539912 575.46716841 602.25391213 576.59000117 602.25383065 C593.06166451 602.25269222 609.53332647 602.25402524 626.00498962 602.25654984 C644.73025266 602.2594055 663.45551178 602.25870195 682.18077433 602.25326909 C692.66616624 602.25032743 703.15154966 602.25014887 713.63694135 602.25391527 C720.6348962 602.25615216 727.63284423 602.25477203 734.63079806 602.2504105 C738.62185073 602.24802461 742.61288648 602.24723312 746.60393864 602.25081648 C750.23345369 602.2540421 753.86293679 602.25268109 757.4924495 602.24763582 C759.41526513 602.24615093 761.33808263 602.24957561 763.26089543 602.2531901 C773.99468572 602.69519379 773.99468572 602.69519379 783.46322632 598.55775452 C786.48075465 596.12025452 786.48075465 596.12025452 788.65072632 596.12025452 C788.96010132 595.31587952 789.26947632 594.51150452 789.58822632 593.68275452 C790.65072632 591.12025452 790.65072632 591.12025452 791.65072632 590.12025452 C792.47738356 585.44353046 792.78146784 580.92298657 792.80221558 576.17974854 C792.80644799 575.51772676 792.8106804 574.85570499 792.81504107 574.17362195 C792.82796481 571.97508487 792.83406775 569.77658393 792.84017944 567.57801819 C792.84812961 565.99404179 792.85651817 564.41006753 792.86531067 562.82609558 C792.88331113 559.42564714 792.89834628 556.02520324 792.91108704 552.62473106 C792.93135911 547.25100026 792.95900125 541.87732274 792.98776245 536.50363159 C793.05285204 524.1341433 793.10844206 511.76461581 793.16374969 499.39508057 C793.21457995 488.04271258 793.26740862 476.69036415 793.3282752 465.33804494 C793.35665581 459.99221223 793.38023895 454.64638602 793.40019989 449.30051553 C793.4135574 445.98334131 793.43097019 442.66619753 793.44951057 439.34904861 C793.45728522 437.80667322 793.46334662 436.26428814 793.46760368 434.72189903 C793.47362461 432.62316124 793.48565976 430.52454274 793.49923706 428.42584229 C793.50439079 427.24950824 793.50954453 426.07317419 793.51485443 424.86119366 C793.65072632 422.12025452 793.65072632 422.12025452 794.65072632 420.12025452 C830.95072632 420.12025452 867.25072632 420.12025452 904.65072632 420.12025452 C904.67275219 457.42970163 904.69122386 494.73914263 904.70179165 532.04859438 C904.70304243 536.44853905 904.70433674 540.8484837 904.70565796 545.24842834 C904.70592027 546.12441616 904.70618258 547.00040398 904.70645284 547.90293688 C904.71080982 562.10598882 904.71869752 576.30903672 904.72787911 590.51208626 C904.73721488 605.07456064 904.74278176 619.63703291 904.74481481 634.19951016 C904.7461902 643.19277914 904.75054164 652.18603674 904.75864279 661.17930222 C904.7639093 667.33770342 904.76553083 673.49609868 904.7642277 679.65450197 C904.76358417 683.21302691 904.76460349 686.77153189 904.76993179 690.33005333 C904.77565307 694.1789054 904.7737274 698.02773103 904.77098083 701.87658691 C904.77389368 703.01372192 904.77680652 704.15085693 904.77980763 705.32245058 C904.77781658 706.34507653 904.77582553 707.36770248 904.77377415 708.4213171 C904.77415387 709.31100183 904.77453359 710.20068657 904.77492481 711.11733145 C904.65072632 713.12025452 904.65072632 713.12025452 903.65072632 714.12025452 C901.3625926 714.2188886 899.07133165 714.24472518 896.78107303 714.24445301 C896.0492574 714.2457311 895.31744177 714.24700919 894.56344991 714.248326 C892.07501358 714.25142447 889.58663897 714.24730417 887.09820461 714.24330235 C885.30292867 714.24404104 883.50765286 714.24521862 881.71237746 714.24679884 C876.73238249 714.24988914 871.7524077 714.24667525 866.77241422 714.24252071 C861.37228369 714.2391045 855.97215533 714.24145385 850.57202441 714.2430982 C841.09220975 714.24517824 831.61240136 714.24351746 822.13258743 714.23945999 C808.03628552 714.23344329 793.93998759 714.23312248 779.84368463 714.23400198 C756.135417 714.23531822 732.42715223 714.23197286 708.71888542 714.22598457 C685.23271611 714.22006653 661.74654794 714.21621037 638.26037788 714.21513176 C637.53157945 714.21509735 636.80278101 714.21506294 636.05189777 714.21502748 C629.39566149 714.21471429 622.73942522 714.2144266 616.08318894 714.21416951 C599.534906 714.21353003 582.98662309 714.21257065 566.43834019 714.21139431 C565.68468296 714.21134099 564.93102572 714.21128768 564.1545304 714.21123274 C527.47381858 714.20860983 490.79310752 714.2023017 454.11239624 714.19569397 C441.37987265 714.19340235 428.64734905 714.19112701 415.91482544 714.18891907 C414.73035229 714.18871364 414.73035229 714.18871364 413.52195038 714.18850407 C376.82824507 714.18216257 340.13453963 714.17843523 303.44083391 714.17538427 C301.05929418 714.17518621 298.67775445 714.17498702 296.29621472 714.17478759 C280.51391762 714.17346784 264.73162052 714.17219318 248.94932342 714.17094873 C217.5451984 714.16847209 186.14107341 714.1657304 154.73694843 714.16280669 C153.24132788 714.16266745 151.74570733 714.16252839 150.25008678 714.16238952 C67.25880237 714.15468187 -15.73248123 714.14214714 -148.34927368 714.12025452 C-148.41776573 657.04861057 -148.48144578 599.97696259 -148.51864624 542.9052887 C-148.51919847 542.06024535 -148.5197507 541.215202 -148.52031966 540.34455127 C-148.53229205 521.97828647 -148.54337267 503.61202123 -148.553535 485.24575534 C-148.55852423 476.23858961 -148.56371046 467.23142399 -148.56900024 458.22425842 C-148.56952328 457.32795011 -148.57004632 456.4316418 -148.5705852 455.50817262 C-148.58762234 426.47040494 -148.61766142 397.43266845 -148.65446256 368.39491966 C-148.69222025 338.54811452 -148.71682179 308.70132664 -148.72493364 278.85449802 C-148.72608622 274.63622414 -148.72738876 270.41795032 -148.72878265 266.19967651 C-148.72905235 265.36948184 -148.72932204 264.53928717 -148.7295999 263.68393509 C-148.73432179 250.33466616 -148.75286056 236.98545066 -148.77660182 223.6362035 C-148.80018935 210.20686872 -148.80913596 196.77758678 -148.80327919 183.34823203 C-148.80024316 175.37531203 -148.80829133 167.40258581 -148.83246385 159.42970089 C-148.84930436 153.46619986 -148.84507852 147.5029049 -148.83286926 141.53938466 C-148.83118394 139.13399624 -148.83621675 136.72859128 -148.84880641 134.32323521 C-148.93339688 117.15762179 -147.01243067 102.96302803 -140.49771118 86.98744202 C-139.70311477 85.00365369 -138.97516654 82.99234941 -138.30239868 80.96400452 C-137.25680464 77.84436329 -135.87421408 75.03150436 -134.34927368 72.12025452 C-133.68927368 72.12025452 -133.02927368 72.12025452 -132.34927368 72.12025452 C-132.26677368 71.39837952 -132.18427368 70.67650452 -132.09927368 69.93275452 C-131.19520244 66.54248737 -129.5670332 64.80844788 -127.34927368 62.12025452 C-126.10910699 59.44079002 -126.10910699 59.44079002 -125.34927368 57.12025452 C-124.68927368 57.12025452 -124.02927368 57.12025452 -123.34927368 57.12025452 C-123.08114868 56.54533264 -122.81302368 55.97041077 -122.53677368 55.37806702 C-118.25698044 47.24082855 -111.2057753 40.12439396 -104.34927368 34.12025452 C-103.68927368 34.12025452 -103.02927368 34.12025452 -102.34927368 34.12025452 C-102.34927368 33.46025452 -102.34927368 32.80025452 -102.34927368 32.12025452 C-100.23616851 30.44900775 -98.12547702 28.89791839 -95.91177368 27.37025452 C-95.26869263 26.92069397 -94.62561157 26.47113342 -93.96304321 26.00794983 C-92.6765737 25.11113369 -91.38786638 24.21751828 -90.09683228 23.32728577 C-88.66979968 22.34164045 -87.2522526 21.34227378 -85.83755493 20.33900452 C-77.96637881 14.86846436 -69.63182624 10.57224953 -60.34927368 8.12025452 C-58.92514038 7.46969074 -57.5089908 6.80149348 -56.09927368 6.12025452 C-51.70104377 4.08389678 -47.40972161 3.23343022 -42.63442993 2.51478577 C-40.32771963 2.22969523 -40.32771963 2.22969523 -38.34927368 1.12025452 C-35.72563821 0.88058672 -33.12564992 0.69876621 -30.49610329 0.56527042 C-29.69351628 0.52312684 -28.89092927 0.48098325 -28.06402145 0.43756259 C-18.71019773 -0.01341816 -9.36250384 -0.01550471 0 0 Z " fill="#619E90" transform="translate(385.3492736816406,295.87974548339844)"/>
<path d="M0 0 C0.81726597 -0.00165078 1.63453194 -0.00330156 2.47656354 -0.00500236 C5.25024206 -0.00936012 8.02386833 -0.00651584 10.79754829 -0.00377727 C12.80073132 -0.00542535 14.80391402 -0.00751091 16.80709618 -0.00999737 C22.35975608 -0.0155938 27.91240064 -0.0148862 33.46506245 -0.01321978 C39.48786235 -0.01249191 45.51065781 -0.017504 51.53345585 -0.0217948 C62.10527587 -0.02850889 72.67709116 -0.03147327 83.24891281 -0.03192973 C94.59726111 -0.03243153 105.94560582 -0.03507241 117.29395294 -0.04033732 C118.36755254 -0.04083252 118.36755254 -0.04083252 119.46284102 -0.04133773 C122.37773874 -0.04268768 125.29263645 -0.04405034 128.20753416 -0.04542983 C162.74994418 -0.06174827 197.29235353 -0.06812053 231.83476675 -0.0728777 C249.03091028 -0.07525939 266.22705341 -0.07896257 283.42319664 -0.0829148 C338.56319555 -0.09558087 393.70319445 -0.10636447 448.84319479 -0.10975526 C451.4796362 -0.1099175 454.11607761 -0.11008306 456.75251902 -0.11024964 C462.04008858 -0.11058345 467.32765814 -0.11091393 472.6152277 -0.1112442 C478.80590252 -0.11163111 484.99657734 -0.11202071 491.18725215 -0.11241527 C492.95908492 -0.11252769 494.7309177 -0.1126391 496.50275047 -0.11274952 C553.41046992 -0.11629912 610.31817675 -0.13137731 667.22589138 -0.15468726 C708.10771733 -0.17142607 748.9895409 -0.18690283 789.87137032 -0.19142222 C791.13219899 -0.19156245 791.13219899 -0.19156245 792.41849896 -0.19170551 C810.86981254 -0.19372446 829.32112608 -0.19488059 847.77243977 -0.1952341 C854.37459089 -0.19537028 860.976742 -0.19557927 867.57889312 -0.19582735 C869.22139277 -0.19588891 870.86389242 -0.19594723 872.50639207 -0.1960023 C898.69216924 -0.19692258 924.87793324 -0.20689643 951.06370608 -0.22145979 C977.43676642 -0.23606861 1003.8098106 -0.2411221 1030.18287427 -0.23304025 C1033.82617921 -0.23192484 1037.46948417 -0.23091419 1041.11278915 -0.22996593 C1042.18408735 -0.22968097 1042.18408735 -0.22968097 1043.27702793 -0.22939027 C1054.5921541 -0.22665511 1065.90725043 -0.23400343 1077.22237011 -0.24553929 C1088.34501834 -0.25666964 1099.46762474 -0.25687064 1110.59027722 -0.24616911 C1116.54174954 -0.24075338 1122.49311786 -0.24014285 1128.44458175 -0.25267783 C1133.85654095 -0.26398178 1139.26831115 -0.2615309 1144.68026368 -0.24801075 C1146.62813457 -0.24557088 1148.57601985 -0.24818139 1150.5238749 -0.25640723 C1170.23246487 -0.33417938 1170.23246487 -0.33417938 1177.2289753 3.1276505 C1177.8889753 3.7876505 1178.5489753 4.4476505 1179.2289753 5.1276505 C1179.9302253 5.3751505 1180.6314753 5.6226505 1181.3539753 5.8776505 C1185.40929971 7.64083503 1188.96145582 10.14391063 1192.2289753 13.1276505 C1192.2289753 13.7876505 1192.2289753 14.4476505 1192.2289753 15.1276505 C1193.0642878 15.467963 1193.0642878 15.467963 1193.9164753 15.8151505 C1196.90938729 17.51383028 1198.96424767 19.54837737 1201.2289753 22.1276505 C1201.2289753 23.1176505 1201.2289753 24.1076505 1201.2289753 25.1276505 C1202.2189753 25.4576505 1203.2089753 25.7876505 1204.2289753 26.1276505 C1204.6010795 27.45068767 1204.93527703 28.78502985 1205.2289753 30.1276505 C1205.8889753 30.4576505 1206.5489753 30.7876505 1207.2289753 31.1276505 C1207.2289753 31.7876505 1207.2289753 32.4476505 1207.2289753 33.1276505 C1207.8889753 33.1276505 1208.5489753 33.1276505 1209.2289753 33.1276505 C1209.2289753 50.6176505 1209.2289753 68.1076505 1209.2289753 86.1276505 C1208.5689753 86.1276505 1207.9089753 86.1276505 1207.2289753 86.1276505 C1207.09233467 86.70901769 1206.95569405 87.29038487 1206.8149128 87.88936925 C1205.25742683 93.83896565 1202.68857238 99.5057143 1200.2289753 105.1276505 C1199.5689753 105.1276505 1198.9089753 105.1276505 1198.2289753 105.1276505 C1198.13358467 105.674213 1198.03819405 106.2207755 1197.9399128 106.7839005 C1197.03410935 109.77006571 1195.55531133 112.01462807 1193.8539753 114.6276505 C1193.24811592 115.566088 1192.64225655 116.5045255 1192.0180378 117.4714005 C1188.74099609 122.33687727 1188.74099609 122.33687727 1187.2289753 124.1276505 C1186.5689753 124.1276505 1185.9089753 124.1276505 1185.2289753 124.1276505 C1184.9814753 124.6845255 1184.7339753 125.2414005 1184.4789753 125.8151505 C1182.99027001 128.56925529 1181.34487558 130.81939564 1179.2289753 133.1276505 C1178.2389753 133.1276505 1177.2489753 133.1276505 1176.2289753 133.1276505 C1175.8989753 134.1176505 1175.5689753 135.1076505 1175.2289753 136.1276505 C1174.5689753 136.1276505 1173.9089753 136.1276505 1173.2289753 136.1276505 C1172.8989753 137.1176505 1172.5689753 138.1076505 1172.2289753 139.1276505 C1160.32712194 149.0578837 1144.70325051 158.10167316 1129.2289753 160.1276505 C1129.2289753 160.7876505 1129.2289753 161.4476505 1129.2289753 162.1276505 C766.5589753 162.1276505 403.8889753 162.1276505 30.2289753 162.1276505 C30.2289753 161.4676505 30.2289753 160.8076505 30.2289753 160.1276505 C29.5483503 160.0039005 28.8677253 159.8801505 28.1664753 159.7526505 C13.1309528 156.55360316 -2.21871405 148.22309782 -13.7710247 138.1276505 C-13.7710247 137.4676505 -13.7710247 136.8076505 -13.7710247 136.1276505 C-14.3278997 135.8801505 -14.8847747 135.6326505 -15.4585247 135.3776505 C-25.66257261 129.86194893 -33.482629 118.19430728 -38.7710247 108.1276505 C-38.7710247 107.1376505 -38.7710247 106.1476505 -38.7710247 105.1276505 C-39.7610247 104.7976505 -40.7510247 104.4676505 -41.7710247 104.1276505 C-42.51125791 102.15369527 -43.15863571 100.14493188 -43.7710247 98.1276505 C-44.7997025 95.76050005 -45.87620596 93.42018122 -46.9663372 91.0807755 C-47.7710247 89.1276505 -47.7710247 89.1276505 -47.7710247 87.1276505 C-48.4310247 87.1276505 -49.0910247 87.1276505 -49.7710247 87.1276505 C-49.7710247 69.3076505 -49.7710247 51.4876505 -49.7710247 33.1276505 C-49.1110247 33.1276505 -48.4510247 33.1276505 -47.7710247 33.1276505 C-47.7710247 32.4676505 -47.7710247 31.8076505 -47.7710247 31.1276505 C-47.1110247 31.1276505 -46.4510247 31.1276505 -45.7710247 31.1276505 C-45.1110247 29.1476505 -44.4510247 27.1676505 -43.7710247 25.1276505 C-43.1110247 25.1276505 -42.4510247 25.1276505 -41.7710247 25.1276505 C-41.7710247 24.1376505 -41.7710247 23.1476505 -41.7710247 22.1276505 C-38.98564942 18.95541753 -36.49929454 16.99178542 -32.7710247 15.1276505 C-32.4410247 14.1376505 -32.1110247 13.1476505 -31.7710247 12.1276505 C-27.94179603 8.61155969 -23.74343203 5.70426746 -18.7710247 4.1276505 C-17.20797904 3.60845701 -15.64552654 3.08747595 -14.0835247 2.5651505 C-13.31653252 2.31636144 -12.54954033 2.06757237 -11.75930595 1.81124425 C-7.62133411 0.38856238 -4.42600188 -0.01240943 0 0 Z " fill="#619E90" transform="translate(183.7710247039795,1055.8723495006561)"/>
<path d="M0 0 C1.31338108 -0.00384115 2.62676217 -0.00768229 3.97994268 -0.01163983 C5.45663799 -0.01085945 6.93333326 -0.00998063 8.41002846 -0.00901413 C9.96380393 -0.01159548 11.51757873 -0.01460799 13.0713526 -0.01801753 C17.36169805 -0.02611787 21.6520268 -0.02787878 25.942379 -0.028615 C30.56141678 -0.0304603 35.18044579 -0.03800494 39.79947853 -0.04475021 C49.90880128 -0.05835543 60.01812008 -0.06436161 70.12745047 -0.06876087 C76.43438839 -0.07151952 82.74132476 -0.07575616 89.04826164 -0.08026505 C106.49496235 -0.09246041 123.94166182 -0.1027593 141.3883667 -0.10614014 C142.50586633 -0.1063597 143.62336597 -0.10657927 144.77472923 -0.10680549 C145.89497014 -0.10702377 147.01521106 -0.10724204 148.16939867 -0.10746694 C150.43960087 -0.10791041 152.70980307 -0.10835697 154.98000526 -0.10880661 C156.1061146 -0.10902804 157.23222394 -0.10924947 158.3924578 -0.10947761 C176.6486234 -0.1134275 194.90474913 -0.13088614 213.16089933 -0.15416613 C231.88412253 -0.17784991 250.60732571 -0.19034062 269.33056414 -0.19150805 C279.85109668 -0.19242648 290.37157729 -0.1982207 300.89209557 -0.21632767 C309.84895073 -0.23168857 318.80573792 -0.23687293 327.76260374 -0.22858956 C332.33608537 -0.22466881 336.90942992 -0.22568167 341.4828949 -0.23964691 C345.66504839 -0.25230098 349.84696061 -0.25126389 354.02911337 -0.2390562 C355.54662572 -0.23708435 357.06415467 -0.24024551 358.58164363 -0.24890056 C360.63556315 -0.25987869 362.68956128 -0.25077376 364.7434845 -0.24050903 C365.88703978 -0.24110612 367.03059506 -0.24170321 368.20880353 -0.24231839 C371.34386225 0.1778353 372.05116087 0.7503856 373.99758339 3.13142776 C375.6531911 3.82510301 377.3210812 4.48989629 378.99758339 5.13142776 C380.62918688 6.0860066 382.2348258 7.08648077 383.81008339 8.13142776 C384.6002787 8.64705276 385.39047401 9.16267776 386.20461464 9.69392776 C386.79629433 10.16830276 387.38797401 10.64267776 387.99758339 11.13142776 C387.99758339 11.79142776 387.99758339 12.45142776 387.99758339 13.13142776 C388.98758339 13.46142776 389.97758339 13.79142776 390.99758339 14.13142776 C390.99758339 14.79142776 390.99758339 15.45142776 390.99758339 16.13142776 C391.98758339 16.46142776 392.97758339 16.79142776 393.99758339 17.13142776 C393.99758339 17.79142776 393.99758339 18.45142776 393.99758339 19.13142776 C394.98758339 19.46142776 395.97758339 19.79142776 396.99758339 20.13142776 C398.99154596 22.79226745 400.99758339 25.74385101 400.99758339 29.13142776 C401.65758339 29.13142776 402.31758339 29.13142776 402.99758339 29.13142776 C403.6610603 30.58181916 404.30218737 32.04243342 404.93508339 33.50642776 C405.29473183 34.31853714 405.65438026 35.13064651 406.02492714 35.96736526 C408.74000332 44.79954078 408.14056747 54.40164864 408.12456703 63.54730606 C408.12572097 64.99177752 408.12731033 66.43624869 408.12929428 67.88071924 C408.1334501 71.82744787 408.1314139 75.77415217 408.12830806 79.72088087 C408.12603885 83.98612401 408.12954115 88.25136306 408.13228798 92.51660538 C408.1367285 100.86360479 408.13577681 109.21059519 408.13287534 117.55759495 C408.13061441 124.34359033 408.13031178 131.12958319 408.13139915 137.91557884 C408.13155239 138.88242443 408.13170562 139.84927001 408.1318635 140.84541394 C408.13218323 142.80972556 408.13250745 144.77403717 408.13283609 146.73834879 C408.13568589 165.14679817 408.13241177 183.55524256 408.12703572 201.96369112 C408.12256885 217.74738904 408.12334363 233.53107959 408.12795448 249.31477737 C408.13331029 267.6570606 408.1354105 285.99933946 408.13234222 304.34162337 C408.13202368 306.29890255 408.13170931 308.25618174 408.13139915 310.21346092 C408.13124488 311.17640181 408.1310906 312.13934269 408.13093165 313.1314636 C408.13006947 319.90613572 408.13152297 326.68080507 408.13387871 333.45547676 C408.1366881 341.71614521 408.13591443 349.97680415 408.13059796 358.23747151 C408.12797623 362.44943828 408.12692994 366.66138923 408.13024712 370.87335587 C408.13324165 374.73414251 408.13156498 378.59489878 408.12626956 382.4556827 C408.12515879 383.84722545 408.12570657 385.23877079 408.12814535 386.63031184 C408.1646873 409.22610842 408.1646873 409.22610842 404.56008339 415.56892776 C403.91232948 416.74261917 403.91232948 416.74261917 403.25148964 417.94002151 C402.83770058 418.66318558 402.42391151 419.38634964 401.99758339 420.13142776 C401.32274946 421.4606461 400.65324887 422.79265034 399.99758339 424.13142776 C399.33758339 424.13142776 398.67758339 424.13142776 397.99758339 424.13142776 C397.68820839 425.15236526 397.68820839 425.15236526 397.37258339 426.19392776 C394.471719 432.39122896 389.89718938 436.77937891 383.99758339 440.13142776 C383.33758339 440.13142776 382.67758339 440.13142776 381.99758339 440.13142776 C381.99758339 440.79142776 381.99758339 441.45142776 381.99758339 442.13142776 C380.34758339 442.46142776 378.69758339 442.79142776 376.99758339 443.13142776 C376.99758339 443.79142776 376.99758339 444.45142776 376.99758339 445.13142776 C375.5250991 445.79235495 374.04406141 446.43422788 372.56008339 447.06892776 C371.73637245 447.4285762 370.91266151 447.78822464 370.06398964 448.15877151 C360.72673596 451.12052459 350.42378166 450.27486475 340.72731972 450.26514053 C338.9605514 450.26701019 337.19378351 450.26931152 335.42701626 450.27200586 C330.5848476 450.27811082 325.74269624 450.2779918 320.90052462 450.27681148 C315.67346526 450.27660715 310.44641141 450.28212922 305.21935463 450.28686905 C294.98457748 450.29516839 284.74980609 450.29792354 274.51502585 450.29848143 C266.19676173 450.29895681 257.8784995 450.30101266 249.56023598 450.30418205 C225.97453716 450.3129857 202.3888429 450.31760174 178.80314243 450.31685158 C177.53216146 450.31681162 176.26118049 450.31677167 174.95168495 450.3167305 C173.67915214 450.31668962 172.40661932 450.31664874 171.09552491 450.31660662 C150.46101689 450.31619995 129.8265271 450.32577545 109.19202435 450.33986887 C88.00283214 450.35422697 66.81364883 450.3611394 45.62445164 450.36027509 C33.72893376 450.35994298 21.83343502 450.36269616 9.93792152 450.37345314 C-0.18712536 450.38255055 -10.31214444 450.38473954 -20.43719363 450.37794372 C-25.60282032 450.37467504 -30.76839364 450.37463447 -35.93401527 450.38329697 C-40.6638408 450.39114715 -45.39357051 450.38974569 -50.12339365 450.38101283 C-51.8332335 450.37947462 -53.54308045 450.38130611 -55.25291193 450.38687291 C-77.12824144 450.45336984 -77.12824144 450.45336984 -84.00241661 445.13142776 C-84.00241661 444.47142776 -84.00241661 443.81142776 -84.00241661 443.13142776 C-84.93054161 442.79111526 -84.93054161 442.79111526 -85.87741661 442.44392776 C-88.6165187 440.75212942 -89.05266133 439.13898615 -90.00241661 436.13142776 C-90.99241661 436.13142776 -91.98241661 436.13142776 -93.00241661 436.13142776 C-93.33241661 434.15142776 -93.66241661 432.17142776 -94.00241661 430.13142776 C-94.66241661 430.13142776 -95.32241661 430.13142776 -96.00241661 430.13142776 C-96.11118643 427.27621996 -96.19008127 424.42522216 -96.25241661 421.56892776 C-96.28593224 420.76906448 -96.31944786 419.9692012 -96.35397911 419.14509964 C-96.44985787 413.27252584 -95.31483066 409.98920034 -92.00241661 405.13142776 C-91.34241661 405.13142776 -90.68241661 405.13142776 -90.00241661 405.13142776 C-89.77554161 404.45080276 -89.54866661 403.77017776 -89.31491661 403.06892776 C-87.49593664 398.99787735 -85.11183693 394.18613792 -81.00241661 392.13142776 C-80.01690059 390.4232 -79.03436018 388.71302341 -78.08054161 386.98689651 C-76.61892402 384.47143145 -74.95761884 382.28215021 -73.00241661 380.13142776 C-72.34241661 380.13142776 -71.68241661 380.13142776 -71.00241661 380.13142776 C-70.89800255 379.55908401 -70.79358849 378.98674026 -70.68601036 378.39705276 C-69.89082162 375.76157009 -68.7234017 374.07111469 -67.06491661 371.88142776 C-66.54026817 371.17502151 -66.01561974 370.46861526 -65.47507286 369.74080276 C-64.9890963 369.20970901 -64.50311974 368.67861526 -64.00241661 368.13142776 C-63.34241661 368.13142776 -62.68241661 368.13142776 -62.00241661 368.13142776 C-61.74073692 367.40439651 -61.47905724 366.67736526 -61.20944786 365.92830276 C-59.97740348 363.07346853 -58.53094939 360.87968067 -56.68991661 358.38142776 C-51.86167399 351.61182926 -47.98799385 345.23920148 -46.00241661 337.13142776 C-45.67241661 336.47142776 -45.34241661 335.81142776 -45.00241661 335.13142776 C-44.90481888 333.5457962 -44.8703732 331.95609563 -44.86654472 330.36746788 C-44.86168698 329.35576786 -44.85682923 328.34406784 -44.85182428 327.30171025 C-44.8515283 326.1818894 -44.85123231 325.06206856 -44.85092735 323.90831375 C-44.84669494 322.72519698 -44.84246253 321.54208021 -44.83810186 320.32311141 C-44.82730135 317.02888494 -44.82097128 313.73470328 -44.81646705 310.44046569 C-44.81052852 306.89164182 -44.79885821 303.34283648 -44.78783226 299.79402542 C-44.76946294 293.64115893 -44.75462529 287.48829202 -44.74205589 281.33541107 C-44.72378218 272.43494505 -44.6991168 263.53450548 -44.67268199 254.63406037 C-44.62986193 240.18901819 -44.59075448 225.74396872 -44.5546627 211.29890823 C-44.5524999 210.43381019 -44.5503371 209.56871216 -44.54810876 208.67739902 C-44.53278149 202.53707551 -44.51758551 196.39675167 -44.50241661 190.25642776 C-44.48509524 183.2458481 -44.46770973 176.23526861 -44.45017052 169.22468948 C-44.44801165 168.36124783 -44.44585278 167.49780617 -44.44362849 166.60819961 C-44.40753535 152.22078864 -44.36758186 137.83339087 -44.32486773 123.44599807 C-44.29869372 114.56624033 -44.27603895 105.68648663 -44.25788414 96.8067088 C-44.24522791 90.72351775 -44.22910578 84.64034236 -44.210235 78.55716743 C-44.19946608 75.04484531 -44.19035072 71.53253839 -44.18553925 68.02020264 C-44.18029871 64.21628229 -44.16747792 60.41240932 -44.15390587 56.60850906 C-44.15360988 55.49314966 -44.15331389 54.37779026 -44.15300894 53.22863209 C-44.14815119 52.21171658 -44.14329345 51.19480107 -44.1382885 50.14706993 C-44.13617253 49.26872179 -44.13405656 48.39037365 -44.13187647 47.4854089 C-44.00814345 45.23555948 -43.63130537 43.28934775 -43.00241661 41.13142776 C-42.34241661 41.13142776 -41.68241661 41.13142776 -41.00241661 41.13142776 C-40.67241661 38.16142776 -40.34241661 35.19142776 -40.00241661 32.13142776 C-39.34241661 32.13142776 -38.68241661 32.13142776 -38.00241661 32.13142776 C-37.67241661 30.15142776 -37.34241661 28.17142776 -37.00241661 26.13142776 C-36.34241661 26.13142776 -35.68241661 26.13142776 -35.00241661 26.13142776 C-34.72397911 25.14142776 -34.72397911 25.14142776 -34.43991661 24.13142776 C-32.39432887 19.86237508 -29.43057018 16.38979071 -26.00241661 13.13142776 C-25.34241661 13.13142776 -24.68241661 13.13142776 -24.00241661 13.13142776 C-23.67241661 12.14142776 -23.34241661 11.15142776 -23.00241661 10.13142776 C-20.40420025 7.8019924 -18.34007139 6.93706857 -15.00241661 6.13142776 C-14.67241661 5.47142776 -14.34241661 4.81142776 -14.00241661 4.13142776 C-11.68433297 3.096569 -9.35066363 2.09588636 -7.00241661 1.13142776 C-5.19619169 -0.67479716 -2.43293312 0.0026527 0 0 Z M220.99758339 71.13142776 C220.31051308 71.64189651 219.62344276 72.15236526 218.91555214 72.67830276 C205.38051823 83.46361578 198.28654271 100.28650095 196.18166542 117.10554886 C194.58282105 134.70131887 200.56054603 151.09729955 211.24758339 164.81892776 C223.43056419 179.06956921 239.61492159 187.14164164 258.18508339 189.00642776 C275.17258973 189.83508661 290.62012416 184.57901902 303.99758339 174.13142776 C304.6846537 173.62095901 305.37172401 173.11049026 306.07961464 172.58455276 C319.61464855 161.79923975 326.70862407 144.97635457 328.81350136 128.15730667 C330.41234573 110.56153666 324.43462075 94.16555598 313.74758339 80.44392776 C301.56460258 66.19328632 285.38024519 58.12121389 266.81008339 56.25642776 C249.82257705 55.42776892 234.37504262 60.68383651 220.99758339 71.13142776 Z M156.06008339 214.50642776 C149.11721089 224.17103666 148.15548737 236.17523656 147.56008339 247.75642776 C146.96532174 257.61535811 145.010909 264.3303567 138.99758339 272.13142776 C138.99758339 272.79142776 138.99758339 273.45142776 138.99758339 274.13142776 C137.51258339 274.62642776 137.51258339 274.62642776 135.99758339 275.13142776 C135.35820839 275.83267776 134.71883339 276.53392776 134.06008339 277.25642776 C125.94665007 285.63706996 114.14650472 289.39987999 103.11086464 292.07283401 C82.79073806 297.10601741 61.82009857 307.33182807 49.99758339 325.13142776 C43.18870982 337.39779541 41.10317092 349.51464325 44.56008339 363.19392776 C48.30240683 375.22470698 55.50575369 383.31914325 66.43508339 389.25642776 C81.43296102 396.37152577 97.14310863 398.71751306 113.07180214 393.21345901 C114.03730995 392.8563887 115.00281776 392.49931839 115.99758339 392.13142776 C116.8290287 391.84654495 117.66047401 391.56166214 118.51711464 391.26814651 C121.53361835 390.20829386 123.71056521 389.41844595 125.99758339 387.13142776 C127.32096971 386.44522745 128.65708287 385.78356316 129.99758339 385.13142776 C134.77097766 382.61454715 138.40660323 380.26649583 141.99758339 376.13142776 C141.99758339 375.47142776 141.99758339 374.81142776 141.99758339 374.13142776 C142.8599662 373.8433223 142.8599662 373.8433223 143.73977089 373.54939651 C146.94448413 371.53674789 148.35198598 368.6788025 150.12258339 365.44392776 C150.4693412 364.84386917 150.81609901 364.24381058 151.17336464 363.62556839 C153.44854237 359.56773225 154.84865665 355.66558506 155.99758339 351.13142776 C156.4577787 349.55168167 156.4577787 349.55168167 156.92727089 347.94002151 C159.38058822 339.19120804 161.13053932 330.42502483 162.60256386 321.4573555 C162.75612343 320.5505806 162.909683 319.64380569 163.06789589 318.70955276 C163.1995414 317.89905472 163.3311869 317.08855667 163.46682167 316.25349808 C163.99758339 314.13142776 163.99758339 314.13142776 165.99758339 311.13142776 C166.16457571 308.00620943 166.16457571 308.00620943 165.99758339 305.13142776 C166.57766151 305.07599808 167.15773964 305.02056839 167.75539589 304.96345901 C171.01050133 303.75555403 171.98191623 301.68530067 173.87258339 298.81892776 C179.38847558 291.02407463 184.27467699 288.53251837 193.54836464 286.60799026 C201.99624936 285.44078535 209.87086909 286.23077341 216.99758339 291.13142776 C225.96202617 298.26223452 227.14583204 309.70509952 228.97609901 320.33650589 C230.83262892 330.19424214 234.95407109 337.92080622 242.99758339 344.13142776 C252.46247698 349.62717243 261.95435529 352.27865111 272.78273964 350.07674026 C284.59528138 346.60330758 294.92295083 340.2397715 301.37258339 329.50642776 C301.90883339 328.39267776 302.44508339 327.27892776 302.99758339 326.13142776 C303.55445839 324.97642776 304.11133339 323.82142776 304.68508339 322.63142776 C307.83791267 314.22388303 308.2137991 304.58945657 304.99758339 296.13142776 C298.44434255 282.44291482 288.28805616 276.83821097 274.36477089 271.82283401 C273.17109901 271.40904495 271.97742714 270.99525589 270.74758339 270.56892776 C262.58500464 267.72700658 255.81192059 264.67255711 249.99758339 258.13142776 C249.30793495 257.42115433 248.61828651 256.71088089 247.90773964 255.97908401 C239.36213911 246.97847647 235.00518696 238.03615491 231.7614994 226.21736526 C230.36115616 221.15065836 228.62750217 216.70943453 225.99758339 212.13142776 C225.33758339 212.13142776 224.67758339 212.13142776 223.99758339 212.13142776 C223.74750526 211.53459183 223.49742714 210.93775589 223.23977089 210.32283401 C220.0896274 204.7655054 213.46394542 201.98899367 207.56008339 200.25642776 C188.70369967 196.23982562 168.96410486 199.0700931 156.06008339 214.50642776 Z " fill="#609E90" transform="translate(935.0024166107178,218.86857223510742)"/>
<path d="M0 0 C3.61761546 1.82907448 6.37135398 3.9019529 9 7 C9.625 9.1875 9.625 9.1875 10 11 C10.99 11.495 10.99 11.495 12 12 C14.04398487 24.64999522 8.286195 33.46895152 2 44 C1.34 44 0.68 44 0 44 C0.0825 44.680625 0.165 45.36125 0.25 46.0625 C-0.10422251 50.22461454 -1.71625342 52.50721111 -4 56 C-4.99 56.495 -4.99 56.495 -6 57 C-6.78015621 58.82510997 -7.47795406 60.68606676 -8.125 62.5625 C-8.47820312 63.57441406 -8.83140625 64.58632813 -9.1953125 65.62890625 C-9.46085938 66.41136719 -9.72640625 67.19382812 -10 68 C-10.99 68 -11.98 68 -13 68 C-13.12375 68.680625 -13.2475 69.36125 -13.375 70.0625 C-15.3720485 79.44862795 -15.3720485 79.44862795 -18.5625 82.25 C-22.208762 86.36373149 -21.89723715 90.66567387 -22 96 C-21.01 96 -20.02 96 -19 96 C-18.8046875 97.953125 -18.609375 99.90625 -18.4140625 101.859375 C-18.10759364 104.01658386 -18.10759364 104.01658386 -17.0234375 105.80859375 C-15.57331726 108.9136222 -15.38228188 111.91633511 -15 115.3125 C-14.4215437 120.42047569 -13.44109252 125.07026269 -12 130 C-12 130.99 -12 131.98 -12 133 C-11.34 133 -10.68 133 -10 133 C-9.67 135.64 -9.34 138.28 -9 141 C-8.21625 141.20625 -7.4325 141.4125 -6.625 141.625 C-1.69539575 143.49484989 2.53427981 146.2229421 7 149 C12.57057799 152.38670668 18.16985519 155.69092127 23.8828125 158.83203125 C26.94217513 160.51976082 29.97036531 162.25957156 33 164 C33 164.66 33 165.32 33 166 C34.65 166.33 36.3 166.66 38 167 C38 167.66 38 168.32 38 169 C39.65 169.66 41.3 170.32 43 171 C43 171.66 43 172.32 43 173 C43.66 173 44.32 173 45 173 C52 180.90322581 52 180.90322581 52 185 C52.99 185.33 53.98 185.66 55 186 C56.68359375 188.36328125 56.68359375 188.36328125 58.4375 191.3125 C60.66918473 195.05194489 62.8989336 197.95831573 66 201 C66.4640625 202.2375 66.4640625 202.2375 66.9375 203.5 C67.84857233 206.19589815 67.84857233 206.19589815 70.4375 207.9375 C74.19276854 210.96003321 75.50310222 214.50930665 77 219 C77.66 219 78.32 219 79 219 C80.3671875 220.828125 80.3671875 220.828125 81.875 223.25 C83.50347076 225.85896363 84.73952105 227.79490216 87.16796875 229.70703125 C90.05463667 233.31998236 89.54287256 236.95406767 89.4375 241.4375 C89.44458984 242.28376953 89.45167969 243.13003906 89.45898438 244.00195312 C89.41013001 248.80095529 89.12856246 252.12831106 86 256 C79.92820524 260.69184141 73.30586935 262.94922965 66 265 C61.13092688 266.39367143 61.13092688 266.39367143 57 269 C55.865625 269.144375 54.73125 269.28875 53.5625 269.4375 C49.95941003 269.64847551 49.95941003 269.64847551 48 272 C46.07382033 272.49814992 44.14569311 272.99038519 42.20703125 273.4375 C39.40172488 274.15248074 36.76906307 275.16264835 34.07421875 276.2109375 C31.11508296 277.33663511 28.114213 278.32076081 25.10546875 279.3046875 C23.28997335 279.90423886 21.48727727 280.54229683 19.6875 281.1875 C17 282 17 282 13 282 C13 282.66 13 283.32 13 284 C13.721875 284.2475 14.44375 284.495 15.1875 284.75 C19.26668769 286.56297231 22.15219468 289.12864453 25.25 292.3125 C27.58827185 294.59762931 29.90892385 296.522374 32.5 298.5 C36.76880009 301.76354369 40.43863929 305.34679454 44.125 309.25 C45.97977175 311.22443723 45.97977175 311.22443723 49 312 C52.02961194 314.33047072 52.32634221 316.34300058 53 320 C53.66 320.33 54.32 320.66 55 321 C55 350.7 55 380.4 55 411 C54.01 411 53.02 411 52 411 C52 412.65 52 414.3 52 416 C51.01 416.33 50.02 416.66 49 417 C48.67 417.99 48.34 418.98 48 420 C47.01 420.33 46.02 420.66 45 421 C44.67 421.66 44.34 422.32 44 423 C36.74 423 29.48 423 22 423 C22 422.34 22 421.68 22 421 C20.9171875 420.690625 20.9171875 420.690625 19.8125 420.375 C15.30277454 418.17024533 12.74867739 414.83913329 10.8686676 410.22087097 C9.92889671 406.73636115 9.76579475 403.8216928 9.78881836 400.21606445 C9.7901326 399.56651794 9.79144684 398.91697144 9.7928009 398.2477417 C9.79924636 396.11943497 9.81965248 393.99149786 9.83984375 391.86328125 C9.84612033 390.37689097 9.85135837 388.89049597 9.85560608 387.40409851 C9.86886611 383.50406116 9.89328389 379.60418245 9.92095947 375.70422363 C9.96419868 369.45192985 9.99379902 363.19959198 10.0170002 356.94719505 C10.02721799 354.76513716 10.04426405 352.58320746 10.06199646 350.40119934 C10.06882358 349.06605137 10.07543233 347.73090226 10.08178711 346.39575195 C10.09004013 345.23026321 10.09829315 344.06477448 10.10679626 342.8639679 C10.13140957 339.92646759 10.13140957 339.92646759 9 337 C7.11683841 335.89163577 7.11683841 335.89163577 5 335 C4.01 334.34 3.02 333.68 2 333 C2 332.34 2 331.68 2 331 C0.68 330.67 -0.64 330.34 -2 330 C-2 329.34 -2 328.68 -2 328 C-2.56074219 327.75894531 -3.12148438 327.51789063 -3.69921875 327.26953125 C-6.47443007 325.7382177 -8.50031351 323.85403695 -10.8125 321.6875 C-13.71535815 319.01943184 -16.56098537 316.48185105 -19.8125 314.25 C-22.91776972 312.0580449 -25.35333212 309.71453116 -28 307 C-29.09614817 306.09437282 -30.20043739 305.1985125 -31.3125 304.3125 C-32.199375 303.549375 -33.08625 302.78625 -34 302 C-34 301.34 -34 300.68 -34 300 C-34.58007812 299.731875 -35.16015625 299.46375 -35.7578125 299.1875 C-38.03390719 297.98204219 -39.8699302 296.61049783 -41.875 295 C-45.11881207 292.50943268 -47.98517324 291.00370669 -52 290 C-52 289.34 -52 288.68 -52 288 C-53.03125 287.731875 -54.0625 287.46375 -55.125 287.1875 C-58.65257232 286.18778315 -61.74780415 284.70001147 -65 283 C-65.99 282.67 -66.98 282.34 -68 282 C-68.556875 283.175625 -69.11375 284.35125 -69.6875 285.5625 C-71.1501801 288.50875562 -72.73973212 291.16262975 -74.6875 293.8125 C-77.10194552 296.80395093 -77.10194552 296.80395093 -78 300 C-78.66 300 -79.32 300 -80 300 C-80.66 301.98 -81.32 303.96 -82 306 C-82.66 306 -83.32 306 -84 306 C-84.10699219 306.55816406 -84.21398437 307.11632812 -84.32421875 307.69140625 C-86.2138556 314.14675525 -90.8217892 319.84687335 -95 325 C-95.72674704 326.21837004 -96.43431528 327.44833035 -97.125 328.6875 C-99 332 -99 332 -101 334 C-101.268125 334.763125 -101.53625 335.52625 -101.8125 336.3125 C-103 339 -103 339 -105.5625 341.5 C-108.22767437 344.23351217 -108.42661769 345.3685787 -109 349 C-110.4375 350.8125 -110.4375 350.8125 -112 352 C-112.66 352 -113.32 352 -114 352 C-114.0825 352.9075 -114.165 353.815 -114.25 354.75 C-115.11995479 358.51980409 -116.24378734 359.4059175 -119 362 C-120.06011943 363.96879323 -121.07470849 365.96435867 -122 368 C-122.66 368 -123.32 368 -124 368 C-124.103125 368.556875 -124.20625 369.11375 -124.3125 369.6875 C-125.14178408 372.4769101 -126.34299056 374.6139064 -128 377 C-128.66 377 -129.32 377 -130 377 C-130.28875 377.7425 -130.5775 378.485 -130.875 379.25 C-131.82302644 381.56739797 -132.84845911 383.77917115 -134 386 C-134.66 386 -135.32 386 -136 386 C-136.27263672 386.92232422 -136.27263672 386.92232422 -136.55078125 387.86328125 C-136.80214844 388.67152344 -137.05351562 389.47976563 -137.3125 390.3125 C-137.55613281 391.11300781 -137.79976563 391.91351562 -138.05078125 392.73828125 C-139.07915682 395.18860822 -140.1266016 396.15323759 -142 398 C-143.76870034 400.81240866 -145.4622828 403.65116169 -147.12695312 406.52539062 C-148.03335896 408.04863218 -149.01146003 409.5287335 -150 411 C-150.66 411 -151.32 411 -152 411 C-152.0825 411.556875 -152.165 412.11375 -152.25 412.6875 C-153.50242237 416.54913565 -155.87753757 419.08081817 -158.984375 421.625 C-163.45616273 423.66394985 -167.64282328 423.47424618 -172.5 423.4375 C-173.43714844 423.45748047 -174.37429688 423.47746094 -175.33984375 423.49804688 C-179.75128273 423.49491819 -182.31311232 423.41400285 -186.15625 421.09765625 C-188 419 -188 419 -188 417 C-189.32 416.34 -190.64 415.68 -192 415 C-192 413.68 -192 412.36 -192 411 C-192.66 411 -193.32 411 -194 411 C-195.50156874 407.99686252 -195.09281204 405.20932478 -195.0625 401.875 C-195.05347656 400.59367187 -195.04445313 399.31234375 -195.03515625 397.9921875 C-195.02355469 397.00476563 -195.01195312 396.01734375 -195 395 C-194.01 395 -193.02 395 -192 395 C-192 393.02 -192 391.04 -192 389 C-191.01 389 -190.02 389 -189 389 C-188.7525 388.113125 -188.505 387.22625 -188.25 386.3125 C-186.93598481 382.83035975 -185.32621 380.87355353 -183 378 C-181.56116995 375.38172082 -180.26282062 372.70700377 -179 370 C-178.34 370 -177.68 370 -177 370 C-176.73058594 369.27683594 -176.46117187 368.55367187 -176.18359375 367.80859375 C-175.01418373 365.03365709 -173.64916133 362.61811482 -172.0625 360.0625 C-169.84839123 356.44088932 -167.81636876 352.83455628 -166 349 C-165.34 349 -164.68 349 -164 349 C-164 348.01 -164 347.02 -164 346 C-163 345 -162 344 -161 343 C-159.57172807 340.71169336 -158.29579662 338.36818003 -157 336 C-156.34 336 -155.68 336 -155 336 C-154.71125 335.2575 -154.4225 334.515 -154.125 333.75 C-153.17697356 331.43260203 -152.15154089 329.22082885 -151 327 C-150.34 327 -149.68 327 -149 327 C-148.9175 326.278125 -148.835 325.55625 -148.75 324.8125 C-147.84592876 321.42223285 -146.21775952 319.68819336 -144 317 C-143.67 316.154375 -143.34 315.30875 -143 314.4375 C-141.81851401 311.5576279 -140.18836219 310.18836219 -138 308 C-136.93988057 306.03120677 -135.92529151 304.03564133 -135 302 C-134.34 302 -133.68 302 -133 302 C-131.47700477 299.06279492 -130.19899698 296.0831351 -129 293 C-128.34 293 -127.68 293 -127 293 C-126.84144531 292.40832031 -126.68289063 291.81664062 -126.51953125 291.20703125 C-124.90534181 285.74019079 -123.17674486 282.97785224 -119 279 C-117.68779395 276.88493103 -116.53866861 274.71177971 -115.375 272.51171875 C-113.90190179 269.82080355 -112.29035315 267.26359315 -110.625 264.6875 C-103.94444336 254.77868247 -103.94444336 254.77868247 -99 244 C-98.01 244 -97.02 244 -96 244 C-95.9175 243.13375 -95.835 242.2675 -95.75 241.375 C-94.8821959 237.46988157 -93.33240103 235.22420143 -91 232 C-88.78411716 228.63514087 -87.57164646 226.00152524 -87 222 C-86.01 222 -85.02 222 -84 222 C-83.896875 221.29875 -83.79375 220.5975 -83.6875 219.875 C-82.53371165 215.05006688 -80.29336893 210.72293879 -77 207 C-76.34 207 -75.68 207 -75 207 C-75.061875 206.278125 -75.12375 205.55625 -75.1875 204.8125 C-74.96310037 201.44650559 -73.86832649 199.76512321 -72 197 C-71.67 196.34 -71.34 195.68 -71 195 C-70.34 195 -69.68 195 -69 195 C-68.67 193.68 -68.34 192.36 -68 191 C-67.34 191 -66.68 191 -66 191 C-65.9175 190.13375 -65.835 189.2675 -65.75 188.375 C-64.88642716 184.48892222 -63.44749984 182.11499979 -61 179 C-60.34 179 -59.68 179 -59 179 C-59.103125 178.29875 -59.20625 177.5975 -59.3125 176.875 C-58.87123138 172.81532874 -56.63829986 171.02439252 -54 168 C-53.14720662 165.78264561 -53.14720662 165.78264561 -53 164 C-52.34 164 -51.68 164 -51 164 C-50.34 161.69 -49.68 159.38 -49 157 C-48.34 157 -47.68 157 -47 157 C-47 153.04 -47 149.08 -47 145 C-47.66 145 -48.32 145 -49 145 C-50.31799328 139.99162554 -51.26678364 135.13251455 -52 130 C-52.33 129.67 -52.66 129.34 -53 129 C-53.07226502 127.14712498 -53.0838122 125.29166122 -53.0625 123.4375 C-53.05347656 122.42558594 -53.04445313 121.41367187 -53.03515625 120.37109375 C-53.01775391 119.19740234 -53.01775391 119.19740234 -53 118 C-53.99 117.67 -54.98 117.34 -56 117 C-56.6953125 115.07421875 -56.6953125 115.07421875 -57.125 112.6875 C-57.27195312 111.90761719 -57.41890625 111.12773438 -57.5703125 110.32421875 C-57.71210937 109.55722656 -57.85390625 108.79023437 -58 108 C-58.17402344 107.38125 -58.34804688 106.7625 -58.52734375 106.125 C-59.42460404 102.09103638 -59.40583455 97.91818604 -59.62109375 93.80078125 C-59.74613281 92.87652344 -59.87117187 91.95226562 -60 91 C-60.66 90.67 -61.32 90.34 -62 90 C-62 86.7 -62 83.4 -62 80 C-61.01 80 -60.02 80 -59 80 C-59.061875 78.948125 -59.12375 77.89625 -59.1875 76.8125 C-58.9909572 72.81612976 -58.39429484 71.13100094 -56 68 C-55.34 67.67 -54.68 67.34 -54 67 C-53.34444881 64.47266765 -53.34444881 64.47266765 -53 62 C-52.34 62 -51.68 62 -51 62 C-50.814375 60.5459375 -50.814375 60.5459375 -50.625 59.0625 C-50.41875 58.051875 -50.2125 57.04125 -50 56 C-49.34 55.67 -48.68 55.34 -48 55 C-47.835 54.175 -47.67 53.35 -47.5 52.5 C-47.335 51.675 -47.17 50.85 -47 50 C-46.34 49.67 -45.68 49.34 -45 49 C-44.27306096 47.02111039 -43.60183749 45.02045442 -43 43 C-42.34 43 -41.68 43 -41 43 C-40.9175 42.29875 -40.835 41.5975 -40.75 40.875 C-39.82451185 37.32729543 -38.05737852 35.02555664 -36 32 C-34.99515117 29.66875071 -33.99477753 27.33556463 -33 25 C-32.2575 24.0409375 -32.2575 24.0409375 -31.5 23.0625 C-29.63448576 20.49741792 -28.74959621 17.88043983 -27.6953125 14.90625 C-26.94503502 12.8493095 -26.04262366 10.92484367 -25 9 C-24.01 9 -23.02 9 -22 9 C-21.89042969 8.39671875 -21.78085937 7.7934375 -21.66796875 7.171875 C-20.74896635 4.18377363 -18.98283006 2.7015321 -16.43359375 0.984375 C-11.26823274 -1.10498451 -5.43994206 -0.77162299 0 0 Z M26 214 C22.43720818 219.35469435 22.43720818 219.35469435 19.9375 225.25 C18.8523631 228.43306824 17.34743733 229.65256267 15 232 C14.28293018 233.98248715 13.61709587 235.98415349 13 238 C12.0436126 239.69207001 11.05589069 241.36816893 10 243 C13.13263102 243 14.65208029 242.45204403 17.5 241.25 C25.20145195 238.07947526 32.94727323 235.14739381 41 233 C40.34 231.68 39.68 230.36 39 229 C38.34 229 37.68 229 37 229 C36.61328125 228.17048828 36.61328125 228.17048828 36.21875 227.32421875 C34.82590283 224.66798777 33.2151703 222.27260655 31.5 219.8125 C30.8915625 218.93207031 30.283125 218.05164063 29.65625 217.14453125 C28.17613352 214.90701147 28.17613352 214.90701147 26 214 Z " fill="#619E90" transform="translate(636,442)"/>
<path d="M0 0 C2.2624882 1.67886478 4.33043223 3.43968823 6.39453125 5.35546875 C7.03003906 5.92394531 7.66554688 6.49242187 8.3203125 7.078125 C17.85742814 16.04342214 22.41423895 26.9417991 22.92041016 39.98461914 C23.10980578 54.18550326 20.30749108 65.67505396 10.39453125 76.35546875 C9.82605469 76.99097656 9.25757813 77.62648438 8.671875 78.28125 C-0.29342214 87.81836564 -11.1917991 92.37517645 -24.23461914 92.88134766 C-38.43550326 93.07074328 -49.92505396 90.26842858 -60.60546875 80.35546875 C-61.24097656 79.78699219 -61.87648438 79.21851563 -62.53125 78.6328125 C-72.06836564 69.66751536 -76.62517645 58.7691384 -77.13134766 45.72631836 C-77.32074328 31.52543424 -74.51842858 20.03588354 -64.60546875 9.35546875 C-64.03699219 8.71996094 -63.46851563 8.08445312 -62.8828125 7.4296875 C-47.04514049 -9.41813216 -19.50081299 -12.3086091 0 0 Z " fill="#619E90" transform="translate(1224.60546875,298.64453125)"/>
<path d="M0 0 C0.68578125 -0.01224609 1.3715625 -0.02449219 2.078125 -0.03710938 C5.81796797 -0.04802331 7.4349737 0.0608158 10.625 2.1875 C11.57375 2.496875 12.5225 2.80625 13.5 3.125 C16.5571946 4.16444617 18.99040418 5.3277853 21.625 7.1875 C21.625 7.8475 21.625 8.5075 21.625 9.1875 C22.945 9.5175 24.265 9.8475 25.625 10.1875 C25.625 10.8475 25.625 11.5075 25.625 12.1875 C26.615 12.5175 27.605 12.8475 28.625 13.1875 C34.98847321 18.67599564 37.54253376 28.14186153 38.625 36.1875 C38.4199127 39.69962007 37.66722226 42.83593261 36.625 46.1875 C36.38007812 47.00605469 36.13515625 47.82460938 35.8828125 48.66796875 C33.82762012 55.16195293 32.12623747 58.96562008 26.625 63.1875 C25.820625 64.0125 25.01625 64.8375 24.1875 65.6875 C19.78380079 69.98379192 15.50535078 72.45012363 9.625 74.1875 C8.635 74.6825 8.635 74.6825 7.625 75.1875 C5.13246624 75.31169345 2.68009244 75.37265513 0.1875 75.375 C-0.8344043 75.39336914 -0.8344043 75.39336914 -1.87695312 75.41210938 C-5.60329809 75.42305848 -7.19491571 75.30755619 -10.375 73.1875 C-11.220625 72.960625 -12.06625 72.73375 -12.9375 72.5 C-20.22265358 69.7183959 -26.77944811 65.21516961 -30.375 58.1875 C-30.375 57.5275 -30.375 56.8675 -30.375 56.1875 C-31.365 56.1875 -32.355 56.1875 -33.375 56.1875 C-33.375 54.2075 -33.375 52.2275 -33.375 50.1875 C-34.035 50.1875 -34.695 50.1875 -35.375 50.1875 C-36.32469869 47.33840394 -36.50369462 45.54501252 -36.5078125 42.58984375 C-36.50910156 41.70619141 -36.51039063 40.82253906 -36.51171875 39.91210938 C-36.50785156 38.99236328 -36.50398437 38.07261719 -36.5 37.125 C-36.50386719 36.20138672 -36.50773438 35.27777344 -36.51171875 34.32617188 C-36.51042969 33.44380859 -36.50914062 32.56144531 -36.5078125 31.65234375 C-36.50668457 30.844021 -36.50555664 30.03569824 -36.50439453 29.20288086 C-36.375 27.1875 -36.375 27.1875 -35.375 25.1875 C-34.715 25.1875 -34.055 25.1875 -33.375 25.1875 C-33.375 23.2075 -33.375 21.2275 -33.375 19.1875 C-32.385 19.1875 -31.395 19.1875 -30.375 19.1875 C-30.1275 18.465625 -29.88 17.74375 -29.625 17 C-28.24358872 13.89182462 -26.70646746 11.66026852 -24.375 9.1875 C-23.385 9.1875 -22.395 9.1875 -21.375 9.1875 C-21.045 8.1975 -20.715 7.2075 -20.375 6.1875 C-16.64258004 3.44307356 -12.80994084 2.38152253 -8.375 1.1875 C-6.40200486 -0.78549514 -2.69011482 0.00250011 0 0 Z " fill="#619E90" transform="translate(665.375,518.8125)"/>
<path d="M0 0 C3.65166066 3.02689276 6.98949929 6.30273387 10.30371094 9.69238281 C10.95726562 10.31371094 11.61082031 10.93503906 12.28417969 11.57519531 C25.8241508 25.39402166 31.01490448 45.35185332 30.84301758 64.16894531 C30.0401903 84.9263349 20.94143873 102.40111012 6.30371094 116.69238281 C5.33691406 117.69011719 5.33691406 117.69011719 4.35058594 118.70800781 C-8.39177096 131.0071523 -27.34523937 137.09581673 -44.75878906 137.25488281 C-65.22378044 136.8908421 -83.64541886 129.93258324 -98.18847656 115.29785156 C-99.01605469 114.43804687 -99.84363281 113.57824219 -100.69628906 112.69238281 C-101.35886719 112.04914063 -102.02144531 111.40589844 -102.70410156 110.74316406 C-111.55982432 101.5896031 -116.69455062 88.86892633 -119.69628906 76.69238281 C-119.88835937 75.94085938 -120.08042969 75.18933594 -120.27832031 74.41503906 C-123.35520178 54.37217569 -118.90050604 34.53494535 -107.71191406 17.70800781 C-105.80520872 15.25217133 -103.81836446 12.96372968 -101.69628906 10.69238281 C-100.99761719 9.91507812 -100.29894531 9.13777344 -99.57910156 8.33691406 C-74.15593539 -18.66954538 -29.54495042 -22.77529569 0 0 Z M-86.69628906 9.69238281 C-87.38335938 10.20285156 -88.07042969 10.71332031 -88.77832031 11.23925781 C-102.31335422 22.02457083 -109.40732975 38.847456 -111.51220703 55.66650391 C-113.1110514 73.26227392 -107.13332642 89.6582546 -96.44628906 103.37988281 C-84.26330826 117.63052425 -68.07895087 125.70259669 -49.50878906 127.56738281 C-32.52128272 128.39604166 -17.0737483 123.13997406 -3.69628906 112.69238281 C-3.00921875 112.18191406 -2.32214844 111.67144531 -1.61425781 111.14550781 C11.9207761 100.36019479 19.01475162 83.53730962 21.11962891 66.71826172 C22.71847328 49.1224917 16.7407483 32.72651103 6.05371094 19.00488281 C-6.12926987 4.75424137 -22.31362726 -3.31783107 -40.88378906 -5.18261719 C-57.87129541 -6.01127603 -73.31882983 -0.75520844 -86.69628906 9.69238281 Z " fill="#45CEAE" transform="translate(1242.6962890625,280.3076171875)"/>
</svg>
